<?xml version="1.0" encoding="utf-8" standalone="no"?>
<!DOCTYPE svg PUBLIC "-//W3C//DTD SVG 1.1//EN"
  "http://www.w3.org/Graphics/SVG/1.1/DTD/svg11.dtd">
<svg xmlns:xlink="http://www.w3.org/1999/xlink" width="460.8pt" height="345.6pt" viewBox="0 0 460.8 345.6" xmlns="http://www.w3.org/2000/svg" version="1.1">
 <metadata>
  <rdf:RDF xmlns:dc="http://purl.org/dc/elements/1.1/" xmlns:cc="http://creativecommons.org/ns#" xmlns:rdf="http://www.w3.org/1999/02/22-rdf-syntax-ns#">
   <cc:Work>
    <dc:type rdf:resource="http://purl.org/dc/dcmitype/StillImage"/>
    <dc:date>2024-03-20T00:16:18.258935</dc:date>
    <dc:format>image/svg+xml</dc:format>
    <dc:creator>
     <cc:Agent>
      <dc:title>Matplotlib v3.8.0, https://matplotlib.org/</dc:title>
     </cc:Agent>
    </dc:creator>
   </cc:Work>
  </rdf:RDF>
 </metadata>
 <defs>
  <style type="text/css">*{stroke-linejoin: round; stroke-linecap: butt}</style>
 </defs>
 <g id="figure_1">
  <g id="patch_1">
   <path d="M 0 345.6 
L 460.8 345.6 
L 460.8 0 
L 0 0 
z
" style="fill: #ffffff"/>
  </g>
  <g id="axes_1">
   <g id="patch_2">
    <path d="M 57.6 307.584 
L 414.72 307.584 
L 414.72 41.472 
L 57.6 41.472 
z
" style="fill: #ffffff"/>
   </g>
   <g id="matplotlib.axis_1">
    <g id="xtick_1">
     <g id="line2d_1">
      <defs>
       <path id="mcbd2e49da9" d="M 0 0 
L 0 3.5 
" style="stroke: #000000; stroke-width: 0.8"/>
      </defs>
      <g>
       <use xlink:href="#mcbd2e49da9" x="73.767783" y="307.584" style="stroke: #000000; stroke-width: 0.8"/>
      </g>
     </g>
     <g id="text_1">
      <!-- 0 -->
      <g transform="translate(70.586533 322.182437) scale(0.1 -0.1)">
       <defs>
        <path id="DejaVuSans-30" d="M 2034 4250 
Q 1547 4250 1301 3770 
Q 1056 3291 1056 2328 
Q 1056 1369 1301 889 
Q 1547 409 2034 409 
Q 2525 409 2770 889 
Q 3016 1369 3016 2328 
Q 3016 3291 2770 3770 
Q 2525 4250 2034 4250 
z
M 2034 4750 
Q 2819 4750 3233 4129 
Q 3647 3509 3647 2328 
Q 3647 1150 3233 529 
Q 2819 -91 2034 -91 
Q 1250 -91 836 529 
Q 422 1150 422 2328 
Q 422 3509 836 4129 
Q 1250 4750 2034 4750 
z
" transform="scale(0.015625)"/>
       </defs>
       <use xlink:href="#DejaVuSans-30"/>
      </g>
     </g>
    </g>
    <g id="xtick_2">
     <g id="line2d_2">
      <g>
       <use xlink:href="#mcbd2e49da9" x="138.711681" y="307.584" style="stroke: #000000; stroke-width: 0.8"/>
      </g>
     </g>
     <g id="text_2">
      <!-- 1000 -->
      <g transform="translate(125.986681 322.182437) scale(0.1 -0.1)">
       <defs>
        <path id="DejaVuSans-31" d="M 794 531 
L 1825 531 
L 1825 4091 
L 703 3866 
L 703 4441 
L 1819 4666 
L 2450 4666 
L 2450 531 
L 3481 531 
L 3481 0 
L 794 0 
L 794 531 
z
" transform="scale(0.015625)"/>
       </defs>
       <use xlink:href="#DejaVuSans-31"/>
       <use xlink:href="#DejaVuSans-30" x="63.623047"/>
       <use xlink:href="#DejaVuSans-30" x="127.246094"/>
       <use xlink:href="#DejaVuSans-30" x="190.869141"/>
      </g>
     </g>
    </g>
    <g id="xtick_3">
     <g id="line2d_3">
      <g>
       <use xlink:href="#mcbd2e49da9" x="203.655579" y="307.584" style="stroke: #000000; stroke-width: 0.8"/>
      </g>
     </g>
     <g id="text_3">
      <!-- 2000 -->
      <g transform="translate(190.930579 322.182437) scale(0.1 -0.1)">
       <defs>
        <path id="DejaVuSans-32" d="M 1228 531 
L 3431 531 
L 3431 0 
L 469 0 
L 469 531 
Q 828 903 1448 1529 
Q 2069 2156 2228 2338 
Q 2531 2678 2651 2914 
Q 2772 3150 2772 3378 
Q 2772 3750 2511 3984 
Q 2250 4219 1831 4219 
Q 1534 4219 1204 4116 
Q 875 4013 500 3803 
L 500 4441 
Q 881 4594 1212 4672 
Q 1544 4750 1819 4750 
Q 2544 4750 2975 4387 
Q 3406 4025 3406 3419 
Q 3406 3131 3298 2873 
Q 3191 2616 2906 2266 
Q 2828 2175 2409 1742 
Q 1991 1309 1228 531 
z
" transform="scale(0.015625)"/>
       </defs>
       <use xlink:href="#DejaVuSans-32"/>
       <use xlink:href="#DejaVuSans-30" x="63.623047"/>
       <use xlink:href="#DejaVuSans-30" x="127.246094"/>
       <use xlink:href="#DejaVuSans-30" x="190.869141"/>
      </g>
     </g>
    </g>
    <g id="xtick_4">
     <g id="line2d_4">
      <g>
       <use xlink:href="#mcbd2e49da9" x="268.599477" y="307.584" style="stroke: #000000; stroke-width: 0.8"/>
      </g>
     </g>
     <g id="text_4">
      <!-- 3000 -->
      <g transform="translate(255.874477 322.182437) scale(0.1 -0.1)">
       <defs>
        <path id="DejaVuSans-33" d="M 2597 2516 
Q 3050 2419 3304 2112 
Q 3559 1806 3559 1356 
Q 3559 666 3084 287 
Q 2609 -91 1734 -91 
Q 1441 -91 1130 -33 
Q 819 25 488 141 
L 488 750 
Q 750 597 1062 519 
Q 1375 441 1716 441 
Q 2309 441 2620 675 
Q 2931 909 2931 1356 
Q 2931 1769 2642 2001 
Q 2353 2234 1838 2234 
L 1294 2234 
L 1294 2753 
L 1863 2753 
Q 2328 2753 2575 2939 
Q 2822 3125 2822 3475 
Q 2822 3834 2567 4026 
Q 2313 4219 1838 4219 
Q 1578 4219 1281 4162 
Q 984 4106 628 3988 
L 628 4550 
Q 988 4650 1302 4700 
Q 1616 4750 1894 4750 
Q 2613 4750 3031 4423 
Q 3450 4097 3450 3541 
Q 3450 3153 3228 2886 
Q 3006 2619 2597 2516 
z
" transform="scale(0.015625)"/>
       </defs>
       <use xlink:href="#DejaVuSans-33"/>
       <use xlink:href="#DejaVuSans-30" x="63.623047"/>
       <use xlink:href="#DejaVuSans-30" x="127.246094"/>
       <use xlink:href="#DejaVuSans-30" x="190.869141"/>
      </g>
     </g>
    </g>
    <g id="xtick_5">
     <g id="line2d_5">
      <g>
       <use xlink:href="#mcbd2e49da9" x="333.543375" y="307.584" style="stroke: #000000; stroke-width: 0.8"/>
      </g>
     </g>
     <g id="text_5">
      <!-- 4000 -->
      <g transform="translate(320.818375 322.182437) scale(0.1 -0.1)">
       <defs>
        <path id="DejaVuSans-34" d="M 2419 4116 
L 825 1625 
L 2419 1625 
L 2419 4116 
z
M 2253 4666 
L 3047 4666 
L 3047 1625 
L 3713 1625 
L 3713 1100 
L 3047 1100 
L 3047 0 
L 2419 0 
L 2419 1100 
L 313 1100 
L 313 1709 
L 2253 4666 
z
" transform="scale(0.015625)"/>
       </defs>
       <use xlink:href="#DejaVuSans-34"/>
       <use xlink:href="#DejaVuSans-30" x="63.623047"/>
       <use xlink:href="#DejaVuSans-30" x="127.246094"/>
       <use xlink:href="#DejaVuSans-30" x="190.869141"/>
      </g>
     </g>
    </g>
    <g id="xtick_6">
     <g id="line2d_6">
      <g>
       <use xlink:href="#mcbd2e49da9" x="398.487273" y="307.584" style="stroke: #000000; stroke-width: 0.8"/>
      </g>
     </g>
     <g id="text_6">
      <!-- 5000 -->
      <g transform="translate(385.762273 322.182437) scale(0.1 -0.1)">
       <defs>
        <path id="DejaVuSans-35" d="M 691 4666 
L 3169 4666 
L 3169 4134 
L 1269 4134 
L 1269 2991 
Q 1406 3038 1543 3061 
Q 1681 3084 1819 3084 
Q 2600 3084 3056 2656 
Q 3513 2228 3513 1497 
Q 3513 744 3044 326 
Q 2575 -91 1722 -91 
Q 1428 -91 1123 -41 
Q 819 9 494 109 
L 494 744 
Q 775 591 1075 516 
Q 1375 441 1709 441 
Q 2250 441 2565 725 
Q 2881 1009 2881 1497 
Q 2881 1984 2565 2268 
Q 2250 2553 1709 2553 
Q 1456 2553 1204 2497 
Q 953 2441 691 2322 
L 691 4666 
z
" transform="scale(0.015625)"/>
       </defs>
       <use xlink:href="#DejaVuSans-35"/>
       <use xlink:href="#DejaVuSans-30" x="63.623047"/>
       <use xlink:href="#DejaVuSans-30" x="127.246094"/>
       <use xlink:href="#DejaVuSans-30" x="190.869141"/>
      </g>
     </g>
    </g>
   </g>
   <g id="matplotlib.axis_2">
    <g id="ytick_1">
     <g id="line2d_7">
      <defs>
       <path id="m87651c242e" d="M 0 0 
L -3.5 0 
" style="stroke: #000000; stroke-width: 0.8"/>
      </defs>
      <g>
       <use xlink:href="#m87651c242e" x="57.6" y="295.488" style="stroke: #000000; stroke-width: 0.8"/>
      </g>
     </g>
     <g id="text_7">
      <!-- 0 -->
      <g transform="translate(44.2375 299.287219) scale(0.1 -0.1)">
       <use xlink:href="#DejaVuSans-30"/>
      </g>
     </g>
    </g>
    <g id="ytick_2">
     <g id="line2d_8">
      <g>
       <use xlink:href="#m87651c242e" x="57.6" y="245.100261" style="stroke: #000000; stroke-width: 0.8"/>
      </g>
     </g>
     <g id="text_8">
      <!-- 2 -->
      <g transform="translate(44.2375 248.89948) scale(0.1 -0.1)">
       <use xlink:href="#DejaVuSans-32"/>
      </g>
     </g>
    </g>
    <g id="ytick_3">
     <g id="line2d_9">
      <g>
       <use xlink:href="#m87651c242e" x="57.6" y="194.712522" style="stroke: #000000; stroke-width: 0.8"/>
      </g>
     </g>
     <g id="text_9">
      <!-- 4 -->
      <g transform="translate(44.2375 198.511741) scale(0.1 -0.1)">
       <use xlink:href="#DejaVuSans-34"/>
      </g>
     </g>
    </g>
    <g id="ytick_4">
     <g id="line2d_10">
      <g>
       <use xlink:href="#m87651c242e" x="57.6" y="144.324783" style="stroke: #000000; stroke-width: 0.8"/>
      </g>
     </g>
     <g id="text_10">
      <!-- 6 -->
      <g transform="translate(44.2375 148.124002) scale(0.1 -0.1)">
       <defs>
        <path id="DejaVuSans-36" d="M 2113 2584 
Q 1688 2584 1439 2293 
Q 1191 2003 1191 1497 
Q 1191 994 1439 701 
Q 1688 409 2113 409 
Q 2538 409 2786 701 
Q 3034 994 3034 1497 
Q 3034 2003 2786 2293 
Q 2538 2584 2113 2584 
z
M 3366 4563 
L 3366 3988 
Q 3128 4100 2886 4159 
Q 2644 4219 2406 4219 
Q 1781 4219 1451 3797 
Q 1122 3375 1075 2522 
Q 1259 2794 1537 2939 
Q 1816 3084 2150 3084 
Q 2853 3084 3261 2657 
Q 3669 2231 3669 1497 
Q 3669 778 3244 343 
Q 2819 -91 2113 -91 
Q 1303 -91 875 529 
Q 447 1150 447 2328 
Q 447 3434 972 4092 
Q 1497 4750 2381 4750 
Q 2619 4750 2861 4703 
Q 3103 4656 3366 4563 
z
" transform="scale(0.015625)"/>
       </defs>
       <use xlink:href="#DejaVuSans-36"/>
      </g>
     </g>
    </g>
    <g id="ytick_5">
     <g id="line2d_11">
      <g>
       <use xlink:href="#m87651c242e" x="57.6" y="93.937044" style="stroke: #000000; stroke-width: 0.8"/>
      </g>
     </g>
     <g id="text_11">
      <!-- 8 -->
      <g transform="translate(44.2375 97.736263) scale(0.1 -0.1)">
       <defs>
        <path id="DejaVuSans-38" d="M 2034 2216 
Q 1584 2216 1326 1975 
Q 1069 1734 1069 1313 
Q 1069 891 1326 650 
Q 1584 409 2034 409 
Q 2484 409 2743 651 
Q 3003 894 3003 1313 
Q 3003 1734 2745 1975 
Q 2488 2216 2034 2216 
z
M 1403 2484 
Q 997 2584 770 2862 
Q 544 3141 544 3541 
Q 544 4100 942 4425 
Q 1341 4750 2034 4750 
Q 2731 4750 3128 4425 
Q 3525 4100 3525 3541 
Q 3525 3141 3298 2862 
Q 3072 2584 2669 2484 
Q 3125 2378 3379 2068 
Q 3634 1759 3634 1313 
Q 3634 634 3220 271 
Q 2806 -91 2034 -91 
Q 1263 -91 848 271 
Q 434 634 434 1313 
Q 434 1759 690 2068 
Q 947 2378 1403 2484 
z
M 1172 3481 
Q 1172 3119 1398 2916 
Q 1625 2713 2034 2713 
Q 2441 2713 2670 2916 
Q 2900 3119 2900 3481 
Q 2900 3844 2670 4047 
Q 2441 4250 2034 4250 
Q 1625 4250 1398 4047 
Q 1172 3844 1172 3481 
z
" transform="scale(0.015625)"/>
       </defs>
       <use xlink:href="#DejaVuSans-38"/>
      </g>
     </g>
    </g>
    <g id="ytick_6">
     <g id="line2d_12">
      <g>
       <use xlink:href="#m87651c242e" x="57.6" y="43.549305" style="stroke: #000000; stroke-width: 0.8"/>
      </g>
     </g>
     <g id="text_12">
      <!-- 10 -->
      <g transform="translate(37.875 47.348524) scale(0.1 -0.1)">
       <use xlink:href="#DejaVuSans-31"/>
       <use xlink:href="#DejaVuSans-30" x="63.623047"/>
      </g>
     </g>
    </g>
   </g>
   <g id="line2d_13">
    <path d="M 73.832727 295.488 
L 73.897671 295.488 
L 74.092503 286.250239 
L 74.157447 288.769626 
L 74.287335 281.516866 
L 74.352278 281.651376 
L 74.417222 282.401196 
L 74.612054 273.004008 
L 74.741942 278.187874 
L 74.806886 277.268096 
L 75.001717 267.027418 
L 75.131605 272.157671 
L 75.196549 271.831864 
L 75.261493 267.613578 
L 75.326437 268.226822 
L 75.521269 266.495827 
L 75.586213 268.909375 
L 75.781044 257.233553 
L 75.845988 257.352468 
L 76.105764 265.130269 
L 76.235651 260.630493 
L 76.300595 260.275738 
L 76.365539 261.601716 
L 76.560371 254.378861 
L 76.755203 256.794373 
L 76.820147 252.510332 
L 76.88509 253.055099 
L 77.014978 252.491865 
L 77.144866 255.696022 
L 77.274754 251.762326 
L 77.469586 256.473227 
L 77.664417 252.394415 
L 77.794305 248.239014 
L 78.054081 251.75895 
L 78.119025 248.272472 
L 78.183968 250.328216 
L 78.248912 251.11114 
L 78.313856 250.626259 
L 78.508688 242.176764 
L 78.768464 248.242743 
L 78.833407 247.133734 
L 78.898351 242.658068 
L 78.963295 242.908193 
L 79.028239 242.114863 
L 79.093183 243.573538 
L 79.223071 238.967292 
L 79.288015 242.808652 
L 79.352959 242.417819 
L 79.482846 244.912088 
L 79.612734 241.228593 
L 79.742622 245.142813 
L 80.132285 241.68556 
L 80.262173 243.999894 
L 80.327117 242.676107 
L 80.392061 243.653931 
L 80.586893 238.387027 
L 80.651837 238.32898 
L 80.846668 230.55065 
L 80.911612 229.674584 
L 81.0415 232.740678 
L 81.171388 226.697122 
L 81.366219 232.519198 
L 81.431163 233.584647 
L 81.496107 237.681246 
L 81.561051 236.860833 
L 81.625995 236.937321 
L 81.690939 236.554979 
L 81.755883 238.145947 
L 81.820827 238.075152 
L 81.950715 238.080266 
L 82.015658 235.615046 
L 82.080602 235.671506 
L 82.145546 235.65969 
L 82.21049 235.137219 
L 82.340378 232.006881 
L 82.405322 234.836102 
L 82.470266 234.491601 
L 82.53521 234.553477 
L 82.600153 235.897167 
L 82.859929 228.223593 
L 83.184649 234.276345 
L 83.314536 231.651194 
L 83.37948 233.064444 
L 83.574312 229.794456 
L 83.639256 230.547249 
L 83.7042 232.699612 
L 83.769144 232.095488 
L 83.834088 232.661015 
L 83.899031 231.657492 
L 84.028919 228.480772 
L 84.158807 229.343914 
L 84.223751 231.323346 
L 84.288695 231.038101 
L 84.353639 229.209404 
L 84.418583 230.687982 
L 84.483527 230.333429 
L 84.743302 226.43042 
L 84.938134 227.955001 
L 85.068022 224.329125 
L 85.132966 224.656998 
L 85.262853 227.636853 
L 85.327797 227.291093 
L 85.587573 218.564516 
L 85.912292 227.623198 
L 85.977236 227.470297 
L 86.04218 227.639297 
L 86.237012 222.005242 
L 86.431843 216.303668 
L 86.496787 216.653485 
L 86.691619 206.632976 
L 86.756563 207.014588 
L 87.146226 220.481719 
L 87.341058 225.282234 
L 87.406002 224.891225 
L 87.470946 222.086341 
L 87.53589 222.817568 
L 87.600834 223.427159 
L 87.665778 222.606066 
L 87.730721 222.906629 
L 87.860609 223.264155 
L 87.990497 217.97838 
L 88.055441 217.994555 
L 88.120385 217.623399 
L 88.315216 221.772627 
L 88.38016 221.711835 
L 88.445104 218.113319 
L 88.510048 218.478 
L 88.639936 217.167969 
L 88.834768 219.783093 
L 88.964655 216.907087 
L 89.224431 220.383186 
L 89.484207 215.202016 
L 89.549151 215.1935 
L 89.743982 216.091284 
L 89.87387 218.969129 
L 90.003758 218.146222 
L 90.133646 215.55085 
L 90.19859 218.751177 
L 90.263533 218.267278 
L 90.328477 218.870873 
L 90.393421 218.836735 
L 90.523309 215.759607 
L 90.588253 218.890927 
L 90.653197 217.577168 
L 90.718141 219.163147 
L 90.783085 218.520729 
L 90.848029 216.064805 
L 90.912972 216.330575 
L 91.107804 218.163908 
L 91.172748 218.494124 
L 91.36758 213.489034 
L 91.432524 214.365252 
L 91.497467 212.545725 
L 91.562411 212.840166 
L 91.627355 213.516899 
L 91.692299 213.084295 
L 91.822187 209.160224 
L 91.887131 209.459728 
L 91.952075 208.532846 
L 92.146906 199.887973 
L 92.21185 201.298225 
L 92.341738 196.382145 
L 92.471626 201.105391 
L 92.53657 201.136354 
L 92.601514 199.500315 
L 92.731402 203.741047 
L 92.861289 199.173147 
L 93.056121 204.596405 
L 93.640616 216.43775 
L 93.770504 213.925367 
L 93.835448 214.015763 
L 93.900392 213.876566 
L 94.095223 207.204146 
L 94.160167 207.416581 
L 94.419943 203.042069 
L 94.614775 208.18842 
L 94.679718 207.450467 
L 94.744662 210.316395 
L 94.809606 210.237136 
L 94.939494 210.75424 
L 95.004438 209.475197 
L 95.134326 211.609597 
L 95.329157 209.342325 
L 95.394101 211.3436 
L 95.459045 210.736932 
L 95.523989 210.619956 
L 95.588933 210.879907 
L 95.718821 210.079094 
L 95.783765 207.468833 
L 95.848709 208.120498 
L 95.913653 208.239539 
L 96.04354 207.999668 
L 96.108484 208.463512 
L 96.173428 210.441508 
L 96.303316 208.298241 
L 96.36826 208.336636 
L 96.433204 207.113373 
L 96.498148 207.640479 
L 96.563092 207.783807 
L 96.628035 208.246946 
L 96.692979 206.276231 
L 96.757923 207.432 
L 96.952755 209.345474 
L 97.017699 208.731122 
L 97.212531 206.020085 
L 97.472306 203.500547 
L 97.53725 204.257245 
L 97.602194 202.316032 
L 97.667138 203.371982 
L 97.861969 207.624481 
L 97.926913 206.567145 
L 98.056801 204.010949 
L 98.186689 203.572904 
L 98.316577 207.692026 
L 98.446465 202.649624 
L 98.511408 203.847744 
L 98.576352 203.251732 
L 98.771184 198.914809 
L 98.836128 198.418439 
L 98.901072 199.001199 
L 98.966016 201.214102 
L 99.095904 197.506522 
L 99.225791 200.942664 
L 99.290735 201.394213 
L 99.355679 199.648354 
L 99.420623 200.707202 
L 99.485567 200.376809 
L 99.810286 193.840562 
L 99.940174 196.400637 
L 100.19995 202.641083 
L 100.264894 202.389094 
L 100.329838 200.184253 
L 100.394782 201.737782 
L 100.524669 203.269292 
L 100.589613 205.310424 
L 100.654557 205.124518 
L 101.04422 202.004812 
L 101.174108 199.927401 
L 101.498828 205.509657 
L 101.563772 204.915686 
L 101.628716 205.551706 
L 101.693659 205.128348 
L 102.018379 197.657937 
L 102.083323 197.162147 
L 102.148267 199.926469 
L 102.53793 187.364654 
L 102.602874 188.089104 
L 102.86265 195.738467 
L 102.992537 191.834475 
L 103.057481 196.114435 
L 103.122425 195.054 
L 103.252313 198.157229 
L 103.447145 191.86826 
L 103.641976 194.493335 
L 103.836808 188.504148 
L 103.901752 189.301106 
L 104.096584 182.948094 
L 104.161528 182.340065 
L 104.226471 186.470801 
L 104.291415 184.800095 
L 104.486247 192.084298 
L 104.551191 190.927748 
L 104.681079 190.614714 
L 104.810967 192.033154 
L 104.87591 188.176149 
L 104.940854 188.38939 
L 105.070742 192.665117 
L 105.20063 190.544448 
L 105.330518 193.977793 
L 105.395462 190.357485 
L 105.460406 191.418927 
L 105.590293 193.520776 
L 105.720181 189.651754 
L 105.785125 193.950937 
L 105.850069 193.180306 
L 105.915013 192.427614 
L 105.979957 192.862032 
L 106.044901 195.402431 
L 106.109845 194.618272 
L 106.174788 191.066238 
L 106.239732 191.128241 
L 106.36962 192.84218 
L 106.499508 189.467385 
L 106.629396 193.129087 
L 106.69434 192.366066 
L 106.759283 193.073207 
L 106.824227 189.427554 
L 106.889171 190.381192 
L 107.019059 192.222133 
L 107.148947 192.836461 
L 107.408722 196.813212 
L 107.53861 195.212545 
L 107.733442 190.21854 
L 107.798386 190.611514 
L 107.86333 190.175534 
L 107.928274 190.618695 
L 108.123105 193.734597 
L 108.188049 193.497724 
L 108.447825 198.098175 
L 108.577713 199.281254 
L 108.7076 197.784033 
L 108.772544 198.032066 
L 108.837488 197.959936 
L 109.227152 191.264036 
L 109.357039 191.631488 
L 109.486927 193.107269 
L 109.616815 193.423578 
L 109.746703 189.471668 
L 109.811647 192.360574 
L 109.876591 192.045776 
L 109.941534 192.725834 
L 110.006478 192.679352 
L 110.136366 191.20289 
L 110.20131 193.036475 
L 110.266254 190.445663 
L 110.331198 191.021671 
L 110.396142 191.13139 
L 110.590973 186.172203 
L 110.720861 187.817061 
L 110.785805 184.288936 
L 110.850749 184.580379 
L 110.915693 184.390972 
L 110.980637 182.407836 
L 111.175469 186.802226 
L 111.240412 186.70712 
L 111.305356 187.00088 
L 111.500188 184.069221 
L 111.565132 187.066435 
L 111.630076 186.932353 
L 111.69502 187.316988 
L 112.019739 182.339989 
L 112.084683 185.027747 
L 112.149627 182.433206 
L 112.214571 183.17436 
L 112.409403 185.284976 
L 112.474347 186.281142 
L 112.53929 183.489081 
L 112.604234 184.756787 
L 112.799066 183.937129 
L 112.86401 184.617868 
L 112.993898 187.673254 
L 113.058842 187.703336 
L 113.123785 189.501699 
L 113.188729 188.111098 
L 113.253673 188.260548 
L 113.448505 190.589923 
L 113.513449 190.557675 
L 113.578393 188.620392 
L 113.643337 188.840788 
L 113.708281 189.93322 
L 113.773224 189.263718 
L 114.033 182.799828 
L 114.162888 184.034025 
L 114.227832 186.630505 
L 114.292776 186.56815 
L 114.35772 186.52265 
L 114.487607 184.988469 
L 114.552551 185.618291 
L 114.682439 188.812269 
L 114.747383 186.371008 
L 114.812327 187.136045 
L 114.877271 187.61551 
L 114.942215 186.662048 
L 115.007159 187.576535 
L 115.072102 187.407912 
L 115.137046 187.59412 
L 115.331878 189.338065 
L 115.656598 181.503175 
L 115.721541 180.887008 
L 115.786485 176.982639 
L 115.851429 177.020959 
L 115.916373 181.142726 
L 115.981317 180.435333 
L 116.241093 172.632338 
L 116.435924 176.627556 
L 116.500868 175.44022 
L 116.6957 167.198952 
L 116.760644 168.996484 
L 116.955475 161.199486 
L 117.020419 161.533682 
L 117.215251 170.298277 
L 117.280195 168.106435 
L 117.410083 172.393071 
L 117.475027 167.753368 
L 117.539971 169.705339 
L 117.604914 169.825186 
L 117.669858 169.608469 
L 117.799746 162.229084 
L 117.994578 170.228717 
L 118.18941 163.157805 
L 118.384241 169.584711 
L 118.449185 170.135499 
L 118.579073 175.845614 
L 118.644017 171.846339 
L 118.708961 172.243521 
L 118.773905 171.227679 
L 119.163568 181.365062 
L 119.228512 181.272424 
L 119.3584 178.140876 
L 119.488287 181.126955 
L 119.553231 180.903636 
L 119.618175 181.357201 
L 119.748063 185.009531 
L 119.877951 182.062705 
L 120.007839 183.188116 
L 120.137726 187.511333 
L 120.20267 185.463525 
L 120.267614 185.739826 
L 120.397502 186.383656 
L 120.462446 184.271956 
L 120.52739 184.39591 
L 120.592334 186.255242 
L 120.657278 185.975792 
L 120.787165 184.965694 
L 120.917053 185.689489 
L 121.176829 182.305801 
L 121.306717 185.104386 
L 121.501548 182.622866 
L 121.566492 182.983844 
L 121.69638 185.183344 
L 121.891212 182.500726 
L 121.956156 182.477371 
L 122.086043 178.280224 
L 122.215931 180.890359 
L 122.280875 181.019075 
L 122.345819 180.675833 
L 122.475707 182.574594 
L 122.605595 180.146586 
L 122.800426 181.705834 
L 122.86537 181.6007 
L 123.060202 178.472705 
L 123.255034 173.598825 
L 123.384921 175.75993 
L 123.514809 175.743655 
L 123.644697 178.748956 
L 123.774585 175.851459 
L 123.839529 176.401718 
L 123.904473 176.225336 
L 124.03436 173.923675 
L 124.099304 173.892837 
L 124.229192 176.218887 
L 124.294136 175.720275 
L 124.488968 179.193476 
L 124.618855 181.527739 
L 124.683799 181.450116 
L 124.813687 181.93525 
L 124.943575 179.778176 
L 125.008519 179.79561 
L 125.20335 178.942671 
L 125.268294 179.802211 
L 125.593014 176.833138 
L 125.787846 178.190005 
L 125.917733 175.87295 
L 126.112565 178.968243 
L 126.177509 178.298036 
L 126.242453 179.991996 
L 126.307397 179.876079 
L 126.372341 179.858242 
L 126.437285 179.329624 
L 126.632116 181.071301 
L 126.826948 181.693766 
L 126.956836 179.879077 
L 127.151667 181.755013 
L 127.216611 180.941729 
L 127.411443 184.000089 
L 127.671219 178.685492 
L 127.801106 178.616637 
L 127.86605 179.292564 
L 127.930994 178.614219 
L 127.995938 179.771121 
L 128.060882 179.560979 
L 128.125826 179.361318 
L 128.19077 179.793569 
L 128.320658 177.507654 
L 128.450545 177.924209 
L 128.645377 176.459816 
L 128.775265 175.597732 
L 128.840209 176.141264 
L 128.905153 174.048913 
L 128.970097 174.839799 
L 129.099984 177.543001 
L 129.619536 168.436727 
L 129.684479 169.524825 
L 129.749423 170.076319 
L 129.814367 167.42348 
L 129.879311 167.606211 
L 130.009199 169.108018 
L 130.074143 169.376383 
L 130.139087 167.614651 
L 130.204031 169.377642 
L 130.268975 167.483567 
L 130.52875 171.557492 
L 130.593694 171.479945 
L 130.983357 164.957655 
L 131.048301 165.137691 
L 131.178189 161.154515 
L 131.243133 162.125335 
L 131.308077 161.500754 
L 131.373021 158.901805 
L 131.437965 159.917218 
L 131.762684 167.505536 
L 131.957516 169.98033 
L 132.02246 169.784927 
L 132.087404 168.873211 
L 132.347179 173.568189 
L 132.412123 174.04269 
L 132.542011 172.909344 
L 132.606955 174.01727 
L 132.671899 172.420634 
L 132.801787 175.589015 
L 132.996618 171.860725 
L 133.061562 173.255584 
L 133.126506 172.270226 
L 133.19145 172.260174 
L 133.386282 174.679617 
L 133.451226 173.436375 
L 133.516169 174.229755 
L 133.581113 174.453225 
L 133.646057 173.007248 
L 133.711001 173.879661 
L 133.840889 175.63721 
L 133.905833 173.155312 
L 133.970777 173.442749 
L 134.035721 173.932417 
L 134.100664 173.916948 
L 134.165608 172.135338 
L 134.230552 172.330666 
L 134.295496 172.922949 
L 134.425384 168.733032 
L 134.555272 169.661199 
L 134.620216 169.699998 
L 134.68516 171.960921 
L 134.750103 170.721483 
L 134.879991 169.601515 
L 135.204711 175.544245 
L 135.334599 174.326373 
L 135.399542 174.648402 
L 135.789206 171.844928 
L 135.85415 172.151286 
L 135.919094 173.356888 
L 136.048981 171.491333 
L 136.178869 171.057847 
L 136.308757 173.758227 
L 136.373701 173.515383 
L 136.503589 170.574855 
L 136.568533 170.634817 
L 136.633477 170.409886 
L 136.69842 170.916459 
L 136.763364 173.295743 
L 136.828308 172.42731 
L 136.958196 172.263222 
L 137.088084 169.742475 
L 137.153028 170.104561 
L 137.217972 169.594562 
L 137.412803 171.634837 
L 137.737523 167.171113 
L 137.932354 167.35004 
L 137.997298 168.226459 
L 138.19213 166.670385 
L 138.257074 167.122413 
L 138.322018 168.514652 
L 138.51685 165.30596 
L 138.581793 163.921784 
L 138.711681 165.312561 
L 138.776625 164.645276 
L 138.841569 165.31115 
L 139.036401 168.662414 
L 139.101345 167.098177 
L 139.166289 167.433457 
L 139.231232 167.555319 
L 139.296176 166.985812 
L 139.426064 170.323471 
L 139.491008 170.45987 
L 139.620896 168.978924 
L 139.750784 169.89195 
L 140.270335 163.466783 
L 140.53011 167.648234 
L 140.595054 167.449203 
L 140.659998 168.010018 
L 140.919774 161.667034 
L 140.984718 162.423202 
L 141.049662 161.578049 
L 141.114605 165.042836 
L 141.179549 164.086376 
L 141.309437 159.893184 
L 141.504269 165.269303 
L 141.569213 165.345011 
L 141.699101 162.032949 
L 141.828988 164.091162 
L 142.02382 158.721442 
L 142.153708 160.061806 
L 142.218652 159.386232 
L 142.478427 164.677651 
L 142.543371 165.729192 
L 142.608315 165.026334 
L 142.803147 159.843249 
L 142.933035 157.820786 
L 142.997979 156.975305 
L 143.062922 161.282777 
L 143.127866 160.928349 
L 143.322698 155.317297 
L 143.387642 155.896277 
L 143.452586 160.520662 
L 143.51753 158.925537 
L 143.647417 160.282429 
L 144.037081 169.271249 
L 144.102025 168.589578 
L 144.166969 168.627545 
L 144.3618 161.367453 
L 144.426744 161.892015 
L 144.491688 161.812201 
L 144.881352 149.12424 
L 144.946295 149.763963 
L 145.076183 145.522903 
L 145.271015 151.80386 
L 145.790566 134.498166 
L 145.985398 142.309425 
L 146.050342 139.635398 
L 146.18023 146.462055 
L 146.245173 146.133426 
L 146.375061 138.481418 
L 146.634837 147.550707 
L 146.764725 142.823833 
L 146.829668 142.871878 
L 146.959556 145.653684 
L 147.0245 145.224708 
L 147.284276 133.95675 
L 147.479107 142.591848 
L 147.544051 143.327282 
L 147.998659 156.339059 
L 148.063603 155.682053 
L 148.323378 160.706946 
L 148.453266 161.797588 
L 148.648098 157.084571 
L 148.907873 161.650053 
L 148.972817 160.592137 
L 149.037761 162.399092 
L 149.102705 161.749518 
L 149.167649 162.062829 
L 149.297537 158.559345 
L 149.427424 161.834774 
L 149.492368 160.332691 
L 149.557312 160.598637 
L 149.622256 160.611032 
L 149.6872 162.067062 
L 149.752144 161.855559 
L 149.946976 158.224971 
L 150.206751 162.165066 
L 150.271695 160.218789 
L 150.336639 160.476875 
L 150.401583 162.436983 
L 150.531471 158.028888 
L 150.596415 158.076428 
L 150.661358 158.648783 
L 150.726302 157.393397 
L 150.791246 159.008929 
L 150.921134 156.43079 
L 151.115966 163.070911 
L 151.18091 164.045587 
L 151.310797 159.518727 
L 151.375741 160.713924 
L 151.440685 161.563638 
L 151.505629 160.899527 
L 151.635517 162.772515 
L 151.700461 162.719432 
L 151.765405 161.090875 
L 151.830349 161.802173 
L 151.895293 162.084244 
L 151.960236 161.95185 
L 152.02518 162.041591 
L 152.220012 165.121163 
L 152.3499 163.512233 
L 152.414844 163.590963 
L 152.479788 165.105316 
L 152.544731 164.198312 
L 152.739563 163.832547 
L 152.804507 162.859963 
L 152.869451 163.500669 
L 153.064283 166.027563 
L 153.129227 165.452866 
L 153.19417 163.813954 
L 153.259114 163.998147 
L 153.324058 163.95703 
L 153.389002 163.75684 
L 153.453946 163.803978 
L 153.51889 164.088114 
L 153.713722 161.730824 
L 153.778666 161.493574 
L 153.843609 162.318471 
L 153.908553 161.925573 
L 154.103385 156.981175 
L 154.298217 154.990583 
L 154.493048 157.720615 
L 154.557992 158.254499 
L 154.622936 156.89083 
L 154.68788 157.701115 
L 154.752824 159.863354 
L 154.817768 159.373232 
L 154.882712 157.420607 
L 154.947656 157.476109 
L 155.0126 157.238304 
L 155.077544 157.341901 
L 155.272375 158.894398 
L 155.467207 161.52101 
L 155.532151 160.387512 
L 155.597095 160.409305 
L 155.662039 162.553908 
L 155.726982 161.563033 
L 155.791926 161.423106 
L 155.986758 162.900828 
L 156.116646 161.697317 
L 156.311478 163.449953 
L 156.376421 163.324387 
L 156.441365 163.661481 
L 156.506309 163.328368 
L 156.766085 165.636957 
L 156.831029 164.977004 
L 156.895973 165.002853 
L 156.960917 165.580372 
L 157.545412 159.914296 
L 157.675299 157.764176 
L 157.740243 158.338646 
L 157.870131 156.437844 
L 157.935075 156.580089 
L 158.000019 154.819567 
L 158.129907 156.896297 
L 158.194851 156.419755 
L 158.389682 150.908873 
L 158.454626 152.172951 
L 158.649458 147.726409 
L 158.779346 144.886858 
L 158.84429 145.416181 
L 158.909233 144.265829 
L 158.974177 144.9897 
L 159.039121 148.128654 
L 159.104065 146.908137 
L 159.169009 148.508401 
L 159.428785 142.928715 
L 159.493729 143.26009 
L 159.623616 139.385978 
L 159.68856 139.53888 
L 159.818448 142.021736 
L 159.948336 137.668588 
L 160.01328 137.71623 
L 160.078224 137.215602 
L 160.143168 135.507332 
L 160.208111 135.569384 
L 160.273055 135.842738 
L 160.727663 145.926383 
L 160.792607 143.933825 
L 161.117326 150.396254 
L 161.247214 147.432699 
L 161.377102 150.50426 
L 161.442046 150.343321 
L 161.571933 149.712114 
L 161.636877 151.359793 
L 161.831709 146.292374 
L 161.896653 147.140425 
L 162.026541 151.41139 
L 162.156428 151.582608 
L 162.286316 155.076544 
L 162.611036 147.427106 
L 162.67598 147.600566 
L 162.740923 150.006857 
L 162.870811 148.129083 
L 162.935755 148.105879 
L 163.065643 150.761716 
L 163.195531 151.164717 
L 163.260475 153.008656 
L 163.325419 151.863091 
L 163.390362 153.022211 
L 163.455306 152.862078 
L 163.715082 147.376693 
L 163.780026 147.566201 
L 163.974858 144.168631 
L 164.039801 146.389547 
L 164.104745 145.253026 
L 164.169689 145.193165 
L 164.234633 142.060812 
L 164.299577 144.882147 
L 164.364521 144.015377 
L 164.429465 144.184529 
L 164.494409 143.221947 
L 164.624296 147.113845 
L 164.68924 147.065574 
L 164.884072 139.968335 
L 164.949016 139.637867 
L 165.01396 136.080543 
L 165.078904 138.491369 
L 165.273735 144.841585 
L 165.468567 140.379776 
L 165.533511 140.933461 
L 165.598455 144.253182 
L 165.793287 138.437278 
L 165.858231 135.778619 
L 166.053062 141.374984 
L 166.118006 141.261939 
L 166.247894 143.933976 
L 166.312838 142.668992 
L 166.572613 148.505378 
L 166.637557 146.320843 
L 166.702501 146.808193 
L 166.767445 146.34586 
L 166.962277 154.048609 
L 167.027221 153.657298 
L 167.157109 149.21912 
L 167.286996 150.771315 
L 167.35194 149.644821 
L 167.481828 154.469447 
L 167.611716 153.986053 
L 167.741604 156.019954 
L 167.936435 153.376008 
L 168.001379 153.657197 
L 168.066323 153.695945 
L 168.196211 153.261779 
L 168.261155 156.490953 
L 168.326099 155.97531 
L 168.585874 155.317523 
L 168.650818 154.007266 
L 168.715762 154.422184 
L 168.780706 153.795133 
L 168.84565 154.770615 
L 168.975538 152.508079 
L 169.040482 153.807655 
L 169.105425 153.799442 
L 169.235313 152.478628 
L 169.365201 152.67126 
L 169.430145 151.052075 
L 169.495089 151.447871 
L 169.560033 153.506437 
L 169.624977 153.298587 
L 169.754864 151.811267 
L 169.949696 154.710175 
L 170.144528 152.274583 
L 170.209472 152.29965 
L 170.404303 149.858717 
L 170.469247 149.080605 
L 170.664079 151.798444 
L 170.793967 149.4504 
L 170.858911 149.484311 
L 171.053742 148.716604 
L 171.118686 146.57772 
L 171.18363 146.769823 
L 171.378462 149.885901 
L 171.443406 149.751643 
L 171.50835 147.910123 
L 171.573294 148.360564 
L 171.638237 150.372622 
L 171.703181 149.73431 
L 171.768125 149.316545 
L 171.833069 149.722872 
L 171.962957 147.354699 
L 172.157789 150.740528 
L 172.222733 151.053637 
L 172.287676 153.625453 
L 172.35262 153.21895 
L 172.67734 148.873738 
L 172.742284 149.049112 
L 172.807228 149.203198 
L 172.872172 148.95068 
L 172.937115 147.987342 
L 173.002059 148.36273 
L 173.131947 149.930318 
L 173.326779 148.028987 
L 173.586554 152.09301 
L 173.651498 151.317417 
L 173.781386 150.699941 
L 173.911274 152.61344 
L 173.976218 151.862033 
L 174.041162 151.9162 
L 174.106106 152.365406 
L 174.171049 151.787384 
L 174.365881 147.574918 
L 174.495769 147.396168 
L 174.560713 149.198033 
L 174.625657 147.034762 
L 174.820488 149.603302 
L 174.950376 150.576843 
L 175.080264 147.980565 
L 175.145208 151.134762 
L 175.210152 150.963897 
L 175.404984 152.220038 
L 175.469927 152.02922 
L 175.599815 150.08589 
L 175.664759 150.139024 
L 175.729703 149.977582 
L 175.859591 147.938516 
L 175.924535 148.07542 
L 175.989479 148.53546 
L 176.054423 148.264877 
L 176.119366 147.807432 
L 176.18431 149.264318 
L 176.249254 149.239704 
L 176.638918 139.816441 
L 176.703861 141.262065 
L 176.833749 139.805381 
L 176.898693 140.441652 
L 177.093525 146.663555 
L 177.158469 145.538246 
L 177.288357 147.005209 
L 177.3533 146.904484 
L 177.418244 146.921666 
L 177.613076 142.359913 
L 177.67802 142.706304 
L 177.807908 139.092218 
L 177.937796 142.760143 
L 178.002739 142.283828 
L 178.262515 133.102577 
L 178.392403 136.390704 
L 178.457347 135.863498 
L 178.652178 127.573883 
L 178.84701 130.871106 
L 179.041842 121.954768 
L 179.17173 126.93673 
L 179.236674 126.822174 
L 179.301617 126.706886 
L 179.626337 118.527017 
L 179.821169 126.909672 
L 180.145888 116.449253 
L 180.405664 126.099664 
L 180.535551 130.317974 
L 180.600495 127.278107 
L 180.665439 129.079343 
L 180.795327 130.130129 
L 180.990159 138.984136 
L 181.055103 138.936142 
L 181.120047 135.919478 
L 181.18499 136.963412 
L 181.249934 139.911774 
L 181.314878 139.826695 
L 181.50971 133.577229 
L 181.574654 132.151886 
L 181.639598 135.396176 
L 181.704542 133.808081 
L 181.834429 130.106875 
L 181.964317 131.426681 
L 182.224093 121.324443 
L 182.418925 127.215702 
L 182.483868 127.150021 
L 182.548812 127.506112 
L 182.613756 128.669514 
L 182.6787 124.649127 
L 182.743644 125.653833 
L 182.873532 129.664949 
L 183.133307 131.164236 
L 183.198251 134.696442 
L 183.263195 132.611851 
L 183.587915 141.433887 
L 183.652859 141.064344 
L 183.84769 133.94962 
L 183.912634 134.188483 
L 184.107466 124.60607 
L 184.17241 124.73597 
L 184.237354 124.810166 
L 184.302298 124.033489 
L 184.367241 127.429976 
L 184.432185 126.943381 
L 184.497129 122.941537 
L 184.562073 124.383533 
L 184.627017 127.610641 
L 184.691961 127.169673 
L 184.821849 121.935772 
L 185.01668 129.121895 
L 185.081624 129.697424 
L 185.146568 129.516834 
L 185.211512 129.765775 
L 185.3414 134.244036 
L 185.406344 134.062942 
L 185.471288 133.000617 
L 185.666119 128.515151 
L 185.990839 133.985521 
L 186.120727 130.631814 
L 186.250614 134.186216 
L 186.315558 130.886549 
L 186.380502 130.955707 
L 186.445446 134.451003 
L 186.51039 133.075569 
L 186.640278 132.206532 
L 186.770166 135.880126 
L 186.964997 129.108568 
L 187.029941 129.047195 
L 187.159829 133.931606 
L 187.354661 126.756392 
L 187.419605 126.96268 
L 187.484549 130.754282 
L 187.549492 129.109601 
L 187.614436 125.14852 
L 187.67938 126.021336 
L 187.744324 125.447621 
L 187.809268 126.037435 
L 187.874212 128.999932 
L 188.069044 123.143541 
L 188.263875 131.061143 
L 188.328819 130.849414 
L 188.458707 133.453376 
L 188.588595 127.836126 
L 188.718483 132.972224 
L 188.913314 130.364029 
L 188.978258 130.014917 
L 189.108146 131.552801 
L 189.238034 128.658152 
L 189.432865 134.842592 
L 189.497809 134.914243 
L 189.562753 132.138634 
L 189.692641 137.13599 
L 189.757585 136.619062 
L 190.017361 129.130386 
L 190.147248 128.125075 
L 190.34208 135.519148 
L 190.407024 135.762495 
L 190.601856 139.492297 
L 190.6668 139.487485 
L 190.796687 135.971982 
L 190.926575 138.31922 
L 190.991519 137.347039 
L 191.056463 137.917176 
L 191.251295 140.133632 
L 191.316239 139.154925 
L 191.446126 136.145795 
L 191.705902 139.214459 
L 191.900734 144.812259 
L 191.965677 143.681432 
L 192.030621 144.474057 
L 192.095565 144.376582 
L 192.225453 142.209959 
L 192.290397 142.513268 
L 192.355341 142.048139 
L 192.420285 142.362055 
L 192.485229 142.115306 
L 192.615116 143.594765 
L 192.68006 142.091649 
L 192.745004 143.392207 
L 192.809948 142.541359 
L 192.874892 141.909774 
L 193.264555 145.957094 
L 193.394443 146.973818 
L 193.459387 148.773441 
L 193.524331 147.727291 
L 193.654219 148.526037 
L 193.719163 147.675114 
L 193.913994 148.876534 
L 194.238714 145.90396 
L 194.303658 146.343769 
L 194.368602 144.83312 
L 194.433546 145.137688 
L 194.49849 145.275449 
L 194.628377 143.221821 
L 194.693321 143.195493 
L 194.823209 144.049868 
L 194.888153 143.803421 
L 194.953097 144.081259 
L 195.018041 143.584915 
L 195.082985 141.519345 
L 195.147928 142.402919 
L 195.212872 143.395432 
L 195.407704 140.934117 
L 195.602536 143.721843 
L 195.927255 137.070863 
L 196.122087 141.305247 
L 196.251975 138.731769 
L 196.316919 138.941886 
L 196.381863 139.704807 
L 196.51175 136.832529 
L 196.706582 140.626399 
L 196.966358 142.769591 
L 197.031302 141.463969 
L 197.096245 142.4427 
L 197.161189 141.907079 
L 197.291077 138.884041 
L 197.420965 140.759599 
L 197.485909 140.633705 
L 197.550853 141.454773 
L 197.615797 139.277091 
L 197.680741 139.365773 
L 197.745684 141.266272 
L 197.810628 140.326995 
L 197.875572 139.771067 
L 197.940516 140.566538 
L 198.00546 138.269512 
L 198.070404 139.695586 
L 198.135348 140.63693 
L 198.330179 139.302813 
L 198.525011 143.073026 
L 198.654899 142.639817 
L 198.719843 143.753764 
L 198.784787 143.425538 
L 198.849731 142.974266 
L 198.979618 144.928 
L 199.434226 138.504747 
L 199.49917 138.467334 
L 199.564114 140.028321 
L 199.629057 139.764113 
L 199.694001 139.558304 
L 199.758945 141.693535 
L 199.888833 139.540492 
L 200.018721 139.972492 
L 200.083665 138.688058 
L 200.148609 139.042208 
L 200.213553 141.517279 
L 200.278496 140.189008 
L 200.34344 140.380658 
L 200.473328 139.720125 
L 200.538272 139.91772 
L 200.66816 137.664884 
L 200.927935 141.463364 
L 201.057823 138.925409 
L 201.122767 139.133763 
L 201.317599 135.902321 
L 201.382543 137.944511 
L 201.447487 137.592099 
L 201.642318 135.186513 
L 201.772206 134.392654 
L 201.902094 136.936555 
L 202.161869 132.357645 
L 202.226813 132.787628 
L 202.356701 133.304329 
L 202.681421 126.35392 
L 202.876252 130.778694 
L 203.071084 127.635986 
L 203.136028 127.487594 
L 203.200972 128.133111 
L 203.265916 127.740566 
L 203.395804 122.789844 
L 203.460747 123.549263 
L 203.915355 128.374343 
L 203.980299 127.437786 
L 204.240074 132.421738 
L 204.305018 131.292397 
L 204.369962 131.367677 
L 204.434906 130.195179 
L 204.49985 132.488728 
L 204.564794 132.028134 
L 204.889513 129.024949 
L 205.149289 133.354591 
L 205.214233 133.208265 
L 205.279177 133.32708 
L 205.34412 133.309494 
L 205.538952 131.587367 
L 205.603896 132.301336 
L 205.66884 130.410461 
L 205.733784 130.742768 
L 205.798728 131.144207 
L 205.993559 128.602448 
L 206.058503 131.903651 
L 206.123447 131.777304 
L 206.188391 130.876875 
L 206.318279 132.211621 
L 206.383223 131.787306 
L 206.513111 134.063471 
L 206.578055 133.511599 
L 206.642998 131.701873 
L 206.707942 132.15622 
L 206.772886 132.202929 
L 206.967718 128.326978 
L 207.032662 128.051131 
L 207.16255 129.823948 
L 207.292437 133.080482 
L 207.422325 132.868224 
L 207.552213 134.041603 
L 207.617157 135.41424 
L 207.682101 133.778453 
L 207.747045 134.290014 
L 207.811989 134.149156 
L 207.876932 135.266932 
L 207.941876 133.518729 
L 208.00682 135.167592 
L 208.071764 134.422207 
L 208.136708 133.997488 
L 208.201652 135.304496 
L 208.266596 134.999046 
L 208.33154 134.633986 
L 208.396484 132.642613 
L 208.461428 134.759301 
L 208.526371 134.59156 
L 208.851091 130.795524 
L 208.916035 130.870904 
L 208.980979 133.648427 
L 209.045923 133.249482 
L 209.240754 136.519622 
L 209.305698 135.632722 
L 209.370642 135.241587 
L 209.50053 133.173926 
L 209.630418 134.878165 
L 209.695362 133.882277 
L 209.955137 137.303831 
L 210.149969 134.688002 
L 210.214913 135.879294 
L 210.344801 134.009128 
L 210.474688 135.103625 
L 210.539632 135.1491 
L 210.604576 135.387636 
L 210.66952 134.394619 
L 210.799408 136.457443 
L 210.99424 134.26472 
L 211.059183 135.221356 
L 211.124127 134.922229 
L 211.189071 135.10622 
L 211.383903 139.15548 
L 211.448847 138.535887 
L 211.513791 139.435132 
L 211.578735 138.345094 
L 211.643679 138.538507 
L 211.773566 139.279207 
L 211.968398 136.487978 
L 212.16323 134.189214 
L 212.228174 133.267597 
L 212.293118 133.489782 
L 212.358061 136.260276 
L 212.423005 134.844884 
L 212.487949 135.013356 
L 212.942557 124.757234 
L 213.0075 125.226696 
L 213.202332 128.969044 
L 213.267276 127.963531 
L 213.462108 130.687115 
L 213.527052 131.180436 
L 213.591995 129.041602 
L 213.656939 129.326646 
L 213.851771 131.767529 
L 213.916715 131.95807 
L 214.046603 134.45186 
L 214.241434 131.539272 
L 214.371322 134.042182 
L 214.436266 133.337409 
L 214.631098 134.456546 
L 214.696042 132.8717 
L 214.760986 134.373129 
L 214.82593 133.201664 
L 214.890873 135.145044 
L 214.955817 134.027343 
L 215.020761 133.699646 
L 215.215593 134.480455 
L 215.475369 130.468382 
L 215.605256 130.679481 
L 215.6702 130.494205 
L 215.800088 128.650493 
L 215.865032 130.164292 
L 216.059864 125.56961 
L 216.124808 125.71644 
L 216.189751 126.395541 
L 216.319639 122.826879 
L 216.384583 123.075467 
L 216.449527 123.063853 
L 216.514471 125.671746 
L 216.579415 124.558681 
L 216.644359 124.385045 
L 216.709303 123.55337 
L 216.83919 125.995512 
L 217.034022 122.187484 
L 217.16391 122.232833 
L 217.228854 122.334213 
L 217.293798 120.332661 
L 217.358742 122.131201 
L 217.488629 120.102566 
L 217.553573 120.504458 
L 217.878293 114.305431 
L 218.267956 119.792051 
L 218.397844 116.582201 
L 218.462788 117.915309 
L 218.527732 115.910432 
L 218.592676 119.249249 
L 218.65762 119.04732 
L 218.722563 118.462848 
L 218.787507 121.682927 
L 218.852451 118.401173 
L 218.917395 120.971653 
L 218.982339 119.808427 
L 219.50189 127.191793 
L 219.566834 126.158794 
L 219.631778 123.202973 
L 219.696722 124.54432 
L 219.761666 124.524795 
L 219.82661 123.885148 
L 219.891554 124.001241 
L 219.956497 124.390864 
L 220.021441 126.122842 
L 220.086385 124.814928 
L 220.151329 124.820722 
L 220.216273 126.400857 
L 220.281217 126.178596 
L 220.346161 125.908014 
L 220.540993 121.215379 
L 220.605936 122.87374 
L 220.800768 118.802209 
L 221.190432 125.942051 
L 221.255375 125.081403 
L 221.450207 127.123694 
L 221.515151 126.428746 
L 221.709983 129.458208 
L 221.774927 130.020561 
L 221.904814 128.005379 
L 221.969758 129.581305 
L 222.034702 128.794627 
L 222.099646 130.009878 
L 222.16459 129.312688 
L 222.359422 128.217939 
L 222.424366 128.309972 
L 222.554253 130.310668 
L 222.684141 128.552942 
L 222.749085 129.139103 
L 222.878973 130.748638 
L 222.943917 129.084281 
L 223.008861 129.216322 
L 223.073805 129.205665 
L 223.138748 129.603703 
L 223.203692 129.427396 
L 223.268636 129.407039 
L 223.33358 128.908906 
L 223.398524 129.017114 
L 223.463468 129.244715 
L 223.528412 128.633008 
L 223.593356 128.782811 
L 223.6583 129.870455 
L 223.853131 127.059903 
L 223.918075 127.083938 
L 224.047963 128.053927 
L 224.112907 128.004925 
L 224.177851 127.034911 
L 224.372683 129.418402 
L 224.437626 129.189238 
L 224.632458 132.571364 
L 224.82729 129.286109 
L 224.892234 129.374439 
L 225.087065 133.009334 
L 225.152009 132.948139 
L 225.476729 130.063466 
L 225.541673 129.97307 
L 225.606617 130.281695 
L 225.866392 127.536344 
L 226.061224 125.469641 
L 226.126168 126.263928 
L 226.191112 124.172887 
L 226.320999 126.413932 
L 226.385943 125.724603 
L 226.450887 123.386586 
L 226.515831 123.495172 
L 226.580775 125.057293 
L 226.645719 124.297244 
L 226.710663 123.700426 
L 226.905495 118.536162 
L 227.100326 124.478186 
L 227.16527 124.71317 
L 227.230214 126.685724 
L 227.425046 123.163344 
L 227.619877 126.756266 
L 227.684821 125.991305 
L 227.749765 124.01986 
L 227.814709 126.039173 
L 228.009541 123.430071 
L 228.074485 123.441912 
L 228.269316 119.699186 
L 228.33426 121.612762 
L 228.529092 115.023507 
L 228.723924 116.524205 
L 228.983699 106.321418 
L 229.113587 109.285351 
L 229.178531 105.637808 
L 229.243475 106.032495 
L 229.373363 109.70823 
L 229.698082 101.707161 
L 229.892914 104.607001 
L 230.022802 101.250094 
L 230.087746 105.169479 
L 230.152689 104.740931 
L 230.347521 95.372389 
L 230.412465 95.857422 
L 230.477409 99.992189 
L 230.542353 98.454607 
L 230.672241 101.127198 
L 230.737185 96.871954 
L 230.802128 98.820447 
L 230.932016 103.637566 
L 230.99696 104.324073 
L 231.061904 102.895153 
L 231.126848 98.723854 
L 231.191792 99.496122 
L 231.516511 111.056077 
L 231.581455 111.044941 
L 231.711343 106.470969 
L 231.971119 113.461638 
L 232.101006 109.004288 
L 232.16595 109.666937 
L 232.230894 109.31843 
L 232.295838 105.463491 
L 232.360782 107.951436 
L 232.425726 111.191771 
L 232.49067 110.169882 
L 232.555614 108.522128 
L 232.620558 109.757182 
L 232.750445 105.596968 
L 232.880333 109.655272 
L 232.945277 106.852883 
L 233.010221 107.860335 
L 233.075165 112.491271 
L 233.140109 110.864351 
L 233.269997 113.111922 
L 233.33494 113.11628 
L 233.399884 114.250307 
L 233.464828 110.757076 
L 233.529772 111.709681 
L 233.724604 118.227335 
L 233.789548 118.124847 
L 233.984379 113.892176 
L 234.049323 114.545806 
L 234.244155 119.487004 
L 234.309099 119.611739 
L 234.374043 116.693785 
L 234.438987 117.066981 
L 234.503931 117.043753 
L 234.568875 117.455446 
L 234.633818 114.522753 
L 234.698762 115.274891 
L 234.763706 118.414098 
L 234.82865 117.590056 
L 235.023482 119.986145 
L 235.088426 119.739119 
L 235.218313 116.483768 
L 235.283257 117.381073 
L 235.348201 117.700557 
L 235.543033 121.047638 
L 235.607977 121.15053 
L 235.672921 121.72437 
L 235.737865 121.413932 
L 235.802809 121.641709 
L 235.867752 121.372639 
L 235.932696 124.048807 
L 235.99764 123.968993 
L 236.192472 126.494855 
L 236.257416 125.924037 
L 236.387304 124.355064 
L 236.647079 126.384808 
L 236.776967 127.361196 
L 236.841911 127.049825 
L 237.036743 128.74885 
L 237.231574 128.086452 
L 237.296518 127.967814 
L 237.361462 129.243481 
L 237.426406 129.088362 
L 237.49135 128.494039 
L 237.556294 129.577778 
L 237.621238 129.479018 
L 237.686182 129.072112 
L 237.751125 131.155771 
L 237.816069 131.144509 
L 237.881013 130.943664 
L 237.945957 131.169804 
L 238.010901 130.99584 
L 238.075845 131.188095 
L 238.140789 130.414114 
L 238.205733 130.52018 
L 238.270677 132.367395 
L 238.335621 131.744879 
L 238.465508 130.559709 
L 238.530452 131.459483 
L 238.595396 131.115159 
L 238.66034 130.532903 
L 238.725284 130.888162 
L 238.790228 131.618885 
L 238.855172 131.132391 
L 239.050003 129.334708 
L 239.309779 125.968908 
L 239.374723 127.030829 
L 239.439667 125.347123 
L 239.504611 125.871987 
L 239.569555 125.458354 
L 239.634499 126.657355 
L 239.699442 125.69888 
L 239.764386 126.523122 
L 239.82933 124.182058 
L 239.894274 125.236144 
L 240.089106 127.232859 
L 240.15405 127.706579 
L 240.218994 129.249779 
L 240.283938 129.146812 
L 240.348881 127.721847 
L 240.413825 127.986382 
L 240.478769 129.487257 
L 240.543713 129.312084 
L 240.673601 129.995845 
L 240.933376 128.418407 
L 240.99832 129.016812 
L 241.32304 126.476186 
L 241.387984 126.842278 
L 241.452928 125.928471 
L 241.647759 127.748451 
L 241.712703 128.176949 
L 241.972479 123.158481 
L 242.167311 124.52938 
L 242.232254 123.56579 
L 242.49203 126.08883 
L 242.621918 124.947019 
L 242.686862 125.135923 
L 243.011581 118.291353 
L 243.076525 119.651268 
L 243.206413 121.13171 
L 243.401245 117.359331 
L 243.466189 119.276836 
L 243.66102 114.508997 
L 243.725964 115.795623 
L 243.790908 113.718641 
L 243.855852 115.097375 
L 243.98574 117.403874 
L 244.115627 115.016704 
L 244.180571 115.382746 
L 244.245515 115.555903 
L 244.310459 118.730457 
L 244.375403 117.777726 
L 244.505291 115.7958 
L 244.570235 118.024525 
L 244.700123 114.599242 
L 244.894954 118.715416 
L 245.089786 114.016231 
L 245.219674 115.867879 
L 245.479449 108.374844 
L 245.609337 108.825512 
L 245.739225 112.100942 
L 246.128888 101.268208 
L 246.388664 106.210364 
L 246.453608 108.04483 
L 246.583496 103.778928 
L 246.64844 103.797597 
L 247.038103 113.005049 
L 247.167991 111.294436 
L 247.297878 113.06942 
L 247.362822 113.244794 
L 247.752486 121.275794 
L 247.882374 118.776184 
L 248.207093 124.183821 
L 248.531813 123.141097 
L 248.791588 119.587301 
L 248.856532 121.301265 
L 249.116308 117.696047 
L 249.181252 119.427093 
L 249.246195 118.234667 
L 249.376083 116.805444 
L 249.505971 120.048399 
L 250.090466 106.154332 
L 250.15541 108.058661 
L 250.350242 102.311562 
L 250.415186 102.466353 
L 250.674961 110.059256 
L 250.739905 109.389049 
L 250.804849 107.783595 
L 250.869793 108.910743 
L 250.934737 107.834108 
L 251.194512 97.71882 
L 251.389344 104.475992 
L 251.454288 104.202689 
L 251.64912 100.059003 
L 251.714064 100.688573 
L 251.843951 95.025419 
L 251.908895 98.7298 
L 251.973839 98.623658 
L 252.038783 98.22887 
L 252.233615 105.231708 
L 252.428446 99.372747 
L 252.49339 99.494988 
L 252.688222 91.911255 
L 252.753166 91.903294 
L 252.81811 94.815857 
L 252.883054 92.496837 
L 253.142829 102.800399 
L 253.207773 103.30939 
L 253.272717 102.940099 
L 253.467549 92.710229 
L 253.532493 93.139205 
L 253.66238 86.801964 
L 253.857212 95.799173 
L 253.922156 93.201232 
L 253.9871 93.883809 
L 254.052044 94.72473 
L 254.181932 87.392256 
L 254.246876 91.240494 
L 254.311819 90.778514 
L 254.376763 91.385031 
L 254.441707 88.679033 
L 254.506651 89.460119 
L 254.571595 89.18092 
L 254.636539 93.319492 
L 254.701483 90.153882 
L 254.831371 93.267769 
L 255.026202 84.54094 
L 255.091146 84.948753 
L 255.15609 84.605965 
L 255.415866 72.441987 
L 255.545754 75.995356 
L 255.610697 75.882135 
L 255.805529 62.92004 
L 255.870473 63.127889 
L 255.935417 66.605701 
L 256.000361 63.585561 
L 256.130249 67.665129 
L 256.195192 67.788881 
L 256.260136 63.980626 
L 256.6498 80.697162 
L 256.714744 81.165717 
L 256.779688 84.454979 
L 257.039463 72.088794 
L 257.169351 75.581244 
L 257.299239 75.159952 
L 257.429127 80.003373 
L 257.559014 73.214457 
L 257.688902 78.142705 
L 257.883734 68.950974 
L 257.948678 68.791244 
L 258.013622 63.959413 
L 258.078566 67.328085 
L 258.273397 75.926073 
L 258.338341 75.748859 
L 258.403285 70.971446 
L 258.468229 71.001981 
L 258.598117 78.87756 
L 258.792948 71.366259 
L 258.857892 71.216432 
L 258.98778 66.242053 
L 259.052724 66.91095 
L 259.182612 74.519801 
L 259.247556 74.397485 
L 259.3125 69.56263 
L 259.377443 72.895527 
L 259.507331 76.344921 
L 259.572275 71.531506 
L 259.637219 71.66526 
L 259.767107 75.905414 
L 259.832051 73.050747 
L 260.221714 88.422434 
L 260.286658 88.830776 
L 260.351602 88.568079 
L 260.416546 85.774306 
L 260.48149 86.250873 
L 260.546434 86.289243 
L 260.611378 83.677345 
L 260.676321 86.566401 
L 260.806209 82.055363 
L 260.871153 86.787855 
L 260.936097 83.730655 
L 261.001041 83.049715 
L 261.065985 83.199744 
L 261.195873 90.379191 
L 261.260817 86.048718 
L 261.32576 86.094722 
L 261.520592 86.725047 
L 261.585536 86.465097 
L 261.715424 93.217356 
L 261.910256 85.668466 
L 261.975199 85.693937 
L 262.170031 93.724257 
L 262.234975 95.934464 
L 262.429807 87.882403 
L 262.494751 89.940641 
L 262.559694 89.631966 
L 262.624638 90.066233 
L 262.689582 85.72616 
L 262.949358 96.18401 
L 263.403965 83.502449 
L 263.598797 89.622846 
L 263.728685 88.846068 
L 263.793629 91.125156 
L 263.923516 86.806121 
L 263.98846 91.617671 
L 264.053404 88.936011 
L 264.378124 99.939509 
L 264.443068 100.626193 
L 264.637899 91.244172 
L 264.702843 91.316126 
L 264.832731 97.477765 
L 264.897675 97.143594 
L 264.962619 97.208292 
L 265.092507 89.895695 
L 265.287338 95.497527 
L 265.352282 96.541082 
L 265.417226 100.820362 
L 265.48217 100.784839 
L 265.806889 87.167023 
L 265.936777 93.584582 
L 266.001721 93.387012 
L 266.066665 92.151403 
L 266.131609 94.349871 
L 266.261497 90.125136 
L 266.391384 96.000195 
L 266.716104 84.771111 
L 266.781048 84.857451 
L 266.97588 89.591782 
L 267.040823 89.459967 
L 267.235655 96.417834 
L 267.300599 96.61941 
L 267.560375 105.01048 
L 267.625319 101.439224 
L 267.690262 102.134651 
L 267.755206 105.338001 
L 267.82015 104.798701 
L 267.885094 104.970523 
L 268.14487 110.779927 
L 268.209814 109.838205 
L 268.274757 112.347641 
L 268.339701 111.902616 
L 268.404645 112.799341 
L 268.469589 112.644097 
L 268.664421 108.028656 
L 268.729365 107.757645 
L 269.054084 114.748717 
L 269.119028 114.536434 
L 269.183972 114.362243 
L 269.248916 115.020332 
L 269.31386 112.853911 
L 269.378804 112.997264 
L 269.508692 115.807187 
L 269.573635 115.722259 
L 269.638579 115.223924 
L 269.703523 116.984068 
L 269.768467 116.038089 
L 269.963299 111.792494 
L 270.028243 111.877573 
L 270.158131 109.112496 
L 270.288018 109.031699 
L 270.677682 117.936724 
L 270.872513 120.892066 
L 270.937457 120.641966 
L 271.067345 117.818439 
L 271.132289 118.875851 
L 271.197233 118.307704 
L 271.327121 116.368179 
L 271.392065 118.270089 
L 271.457008 117.693503 
L 271.65184 119.458459 
L 271.716784 119.121038 
L 271.911616 116.509895 
L 271.97656 116.271586 
L 272.041504 117.608549 
L 272.106447 116.839909 
L 272.171391 115.477273 
L 272.236335 115.924666 
L 272.301279 116.243091 
L 272.366223 115.939883 
L 272.561055 113.511421 
L 272.82083 115.234833 
L 273.14555 111.091096 
L 273.210494 112.72643 
L 273.275438 112.666343 
L 273.470269 114.061277 
L 273.535213 113.640162 
L 273.600157 114.41709 
L 273.665101 114.080248 
L 273.794989 112.756789 
L 273.924877 112.208142 
L 273.989821 110.319333 
L 274.054764 110.893904 
L 274.184652 112.315191 
L 274.249596 112.166421 
L 274.31454 112.423348 
L 274.379484 110.696762 
L 274.444428 110.756169 
L 274.509372 111.565144 
L 274.574316 111.260601 
L 274.639259 111.042548 
L 274.834091 109.490253 
L 274.899035 110.399676 
L 274.963979 110.116346 
L 275.223755 106.279319 
L 275.288698 106.537178 
L 275.418586 108.468188 
L 275.548474 106.790024 
L 275.678362 107.595774 
L 275.80825 111.018513 
L 275.873194 110.974549 
L 276.003081 109.191504 
L 276.132969 111.802848 
L 276.262857 108.675307 
L 276.327801 108.98955 
L 276.392745 108.715743 
L 276.457689 108.78941 
L 276.65252 112.872101 
L 276.717464 112.873739 
L 277.107128 118.601767 
L 277.172072 118.529561 
L 277.301959 117.08754 
L 277.366903 114.814851 
L 277.431847 114.850223 
L 277.561735 116.087872 
L 277.626679 115.639144 
L 277.691623 115.668772 
L 277.756567 116.716736 
L 277.886454 113.58272 
L 277.951398 113.619226 
L 278.016342 115.673508 
L 278.081286 115.202862 
L 278.14623 113.317655 
L 278.211174 113.522103 
L 278.470949 111.330085 
L 278.665781 107.34958 
L 278.730725 108.077028 
L 278.795669 111.394733 
L 278.860613 109.55747 
L 278.990501 109.82062 
L 279.120388 106.251682 
L 279.185332 107.917576 
L 279.250276 106.720464 
L 279.31522 108.945133 
L 279.380164 106.363668 
L 279.445108 107.69529 
L 279.510052 107.684255 
L 279.704884 112.468193 
L 279.769827 111.65753 
L 279.834771 111.142416 
L 279.899715 111.45603 
L 280.094547 112.200156 
L 280.159491 115.26824 
L 280.224435 115.266275 
L 280.289379 115.145772 
L 280.419266 117.852148 
L 280.614098 114.458131 
L 280.80893 115.96669 
L 280.938818 112.053502 
L 281.003761 112.632785 
L 281.133649 111.703912 
L 281.328481 108.406715 
L 281.458369 106.171641 
L 281.523313 104.294697 
L 281.588257 104.392953 
L 281.6532 108.006737 
L 281.718144 105.471352 
L 281.783088 106.690458 
L 281.848032 106.309249 
L 281.912976 104.640483 
L 281.97792 107.907775 
L 282.107808 105.231733 
L 282.172752 106.481903 
L 282.367583 103.32234 
L 282.432527 103.625876 
L 282.562415 99.09894 
L 282.627359 99.642775 
L 282.692303 100.868381 
L 282.757247 98.071585 
L 282.952078 102.840154 
L 283.017022 102.692443 
L 283.406686 95.131158 
L 283.47163 96.388307 
L 283.536573 93.705386 
L 283.601517 94.273407 
L 283.666461 95.241381 
L 283.861293 91.065321 
L 283.926237 91.825193 
L 283.991181 93.994108 
L 284.3159 81.875353 
L 284.575676 91.611725 
L 284.64062 89.532375 
L 284.705564 89.84561 
L 284.835451 89.43815 
L 285.030283 93.520337 
L 285.225115 85.454016 
L 285.419947 89.292756 
L 285.48489 88.874311 
L 285.549834 86.475602 
L 285.614778 90.288972 
L 285.679722 88.647893 
L 285.744666 89.005243 
L 285.80961 85.87488 
L 285.939498 89.494206 
L 286.004442 88.873404 
L 286.134329 82.128627 
L 286.199273 83.955208 
L 286.264217 84.41288 
L 286.394105 77.930371 
L 286.459049 78.876854 
L 286.523993 78.283388 
L 286.588937 75.877222 
L 286.653881 79.26159 
L 286.848712 74.284012 
L 287.043544 79.076339 
L 287.108488 78.547974 
L 287.173432 81.733159 
L 287.238376 78.998012 
L 287.30332 79.517686 
L 287.368263 81.957208 
L 287.628039 71.75422 
L 287.692983 72.000666 
L 287.757927 67.849926 
L 287.822871 68.362168 
L 288.082646 79.33246 
L 288.342422 85.094752 
L 288.47231 77.426821 
L 288.537254 79.768138 
L 288.602198 79.745111 
L 288.667141 76.23961 
L 288.926917 85.141637 
L 289.251637 72.027573 
L 289.31658 74.190064 
L 289.381524 73.914468 
L 289.446468 74.52285 
L 289.576356 78.778875 
L 289.6413 78.370105 
L 289.836132 69.779272 
L 289.901075 69.939354 
L 290.225795 77.891446 
L 290.290739 74.923835 
L 290.355683 78.498468 
L 290.420627 78.368341 
L 290.745346 71.503213 
L 291.070066 84.834423 
L 291.13501 86.253166 
L 291.199953 85.957894 
L 291.589617 74.750476 
L 291.784449 78.964277 
L 291.97928 83.299638 
L 292.239056 87.894874 
L 292.304 84.63771 
L 292.368944 85.138463 
L 292.498831 87.379962 
L 292.563775 84.436058 
L 292.693663 88.972063 
L 292.758607 88.427926 
L 293.018383 91.688642 
L 293.083326 91.13803 
L 293.14827 94.323266 
L 293.213214 92.79032 
L 293.343102 91.970259 
L 293.408046 93.815736 
L 293.797709 83.211812 
L 293.862653 84.654791 
L 293.927597 80.237273 
L 293.992541 81.421889 
L 294.057485 81.545263 
L 294.187373 78.412305 
L 294.252317 82.178788 
L 294.317261 81.268937 
L 294.447148 77.598114 
L 294.512092 80.138941 
L 294.577036 80.045825 
L 294.771868 77.702644 
L 294.836812 77.495651 
L 295.031643 85.063436 
L 295.096587 85.439908 
L 295.226475 80.348857 
L 295.356363 81.312371 
L 295.486251 86.145764 
L 295.616139 82.684227 
L 295.681082 86.024582 
L 295.940858 79.746748 
L 296.265577 90.913326 
L 296.330521 90.277836 
L 296.395465 90.300762 
L 296.460409 90.717923 
L 296.525353 90.533655 
L 296.590297 88.433645 
L 296.655241 88.511091 
L 296.850073 97.513012 
L 296.915016 97.189724 
L 297.109848 91.659669 
L 297.174792 91.666724 
L 297.239736 94.212388 
L 297.369624 89.205106 
L 297.434568 89.407539 
L 297.499512 92.172339 
L 297.629399 88.937875 
L 297.694343 89.261541 
L 297.889175 95.592508 
L 297.954119 94.956086 
L 298.019063 92.587106 
L 298.084007 95.176053 
L 298.148951 91.716204 
L 298.213894 91.782061 
L 298.278838 93.990002 
L 298.408726 88.880231 
L 298.47367 89.422655 
L 298.733446 96.237169 
L 298.798389 96.078498 
L 298.863333 93.447955 
L 299.188053 101.619562 
L 299.382885 99.421195 
L 299.512772 100.192304 
L 299.707604 105.106721 
L 299.772548 104.852867 
L 299.837492 105.500778 
L 299.96738 103.148905 
L 300.032324 102.879608 
L 300.097267 105.505716 
L 300.357043 99.56019 
L 300.551875 104.354155 
L 300.681763 99.69208 
L 300.81165 101.881956 
L 300.941538 98.002276 
L 301.071426 99.094859 
L 301.13637 98.841232 
L 301.201314 101.607771 
L 301.461089 93.646181 
L 301.655921 96.935039 
L 301.720865 96.254401 
L 301.850753 97.778051 
L 301.915697 96.02937 
L 302.045584 100.560664 
L 302.110528 99.500556 
L 302.175472 100.488785 
L 302.240416 97.7877 
L 302.30536 97.87147 
L 302.370304 97.70063 
L 302.435248 95.574217 
L 302.500192 98.374995 
L 302.565136 97.184559 
L 302.695023 97.742301 
L 302.824911 101.750545 
L 302.889855 101.666901 
L 303.214575 105.903704 
L 303.279518 102.869203 
L 303.344462 104.833745 
L 303.409406 103.448385 
L 303.47435 103.486629 
L 303.669182 105.91421 
L 303.993901 103.221842 
L 304.188733 101.482104 
L 304.253677 101.220491 
L 304.318621 101.310206 
L 304.448509 102.504093 
L 304.513453 102.286998 
L 304.64334 100.040461 
L 304.708284 100.534412 
L 304.773228 100.199157 
L 304.838172 101.956102 
L 304.903116 101.26783 
L 304.96806 101.761227 
L 305.033004 101.359788 
L 305.097948 102.681937 
L 305.162891 102.101344 
L 305.292779 102.846806 
L 305.357723 101.832551 
L 305.422667 102.532789 
L 305.617499 106.80577 
L 305.747387 105.440741 
L 305.81233 106.294839 
L 305.942218 104.845486 
L 306.072106 106.017328 
L 306.266938 103.570852 
L 306.526713 100.515793 
L 306.591657 100.705881 
L 306.916377 107.235704 
L 306.981321 107.121651 
L 307.046265 107.213533 
L 307.111208 106.180181 
L 307.241096 108.240889 
L 307.370984 106.780627 
L 307.63076 109.627332 
L 307.825591 107.983659 
L 307.890535 107.729126 
L 307.955479 109.081003 
L 308.020423 107.862174 
L 308.085367 107.875452 
L 308.150311 108.289664 
L 308.215255 107.661606 
L 308.345142 109.428351 
L 308.410086 108.327329 
L 308.47503 108.959418 
L 308.994581 101.610694 
L 309.124469 99.107053 
L 309.189413 99.011467 
L 309.514133 102.139085 
L 309.579077 99.968734 
L 309.64402 101.524102 
L 309.708964 99.680213 
L 309.773908 99.904489 
L 309.903796 102.359229 
L 310.033684 99.403937 
L 310.228516 103.548908 
L 310.293459 103.116027 
L 310.358403 100.551644 
L 310.423347 100.946886 
L 310.488291 101.057512 
L 310.553235 101.604446 
L 310.748067 106.271559 
L 310.813011 105.6856 
L 310.877954 106.733262 
L 310.942898 106.21122 
L 311.072786 106.926776 
L 311.267618 104.757811 
L 311.332562 105.01179 
L 311.397506 102.730687 
L 311.46245 103.314303 
L 311.592337 105.019021 
L 311.657281 104.668146 
L 311.917057 107.425363 
L 312.046945 106.625559 
L 312.111889 107.143822 
L 312.30672 104.061578 
L 312.436608 103.878646 
L 312.501552 104.407515 
L 312.63144 101.698494 
L 312.826271 103.913161 
L 312.891215 103.534875 
L 312.956159 105.846262 
L 313.021103 105.702153 
L 313.150991 104.145298 
L 313.215935 105.214828 
L 313.280879 105.034289 
L 313.47571 100.651765 
L 313.540654 100.185955 
L 313.80043 103.272305 
L 313.930318 100.961876 
L 313.995262 101.596535 
L 314.060205 101.474067 
L 314.255037 97.877592 
L 314.384925 96.257349 
L 314.449869 94.226144 
L 314.514813 97.146088 
L 314.579757 96.834415 
L 314.644701 94.287214 
L 314.709644 95.322178 
L 314.839532 96.002085 
L 314.904476 97.963024 
L 314.96942 97.013644 
L 315.034364 97.303676 
L 315.099308 98.172411 
L 315.164252 97.681584 
L 315.229196 97.022185 
L 315.359083 93.515022 
L 315.424027 93.680923 
L 315.488971 94.829361 
L 315.553915 93.422711 
L 315.618859 93.643158 
L 315.683803 95.789146 
L 315.748747 95.780328 
L 315.943579 92.078769 
L 316.13841 88.992646 
L 316.203354 85.820637 
L 316.268298 87.50583 
L 316.398186 85.479034 
L 316.528074 90.721525 
L 316.593018 87.738672 
L 316.657961 88.534571 
L 316.722905 86.948013 
L 316.852793 90.632415 
L 316.917737 90.42328 
L 316.982681 88.042107 
L 317.047625 89.138846 
L 317.177513 91.349558 
L 317.242456 94.362795 
L 317.3074 94.336367 
L 317.372344 93.778423 
L 317.437288 94.370908 
L 317.502232 94.018471 
L 317.63212 95.419527 
L 317.697064 94.79414 
L 318.086727 89.362644 
L 318.216615 92.864995 
L 318.281559 92.715771 
L 318.346503 92.003818 
L 318.541334 87.552414 
L 318.606278 86.851949 
L 318.671222 87.863457 
L 318.80111 86.567157 
L 319.060886 91.2705 
L 319.12583 91.01516 
L 319.255717 88.494967 
L 319.385605 89.89819 
L 319.515493 89.209263 
L 319.9701 97.68506 
L 320.035044 97.272889 
L 320.164932 94.041019 
L 320.229876 96.050482 
L 320.29482 94.99428 
L 320.359764 92.472928 
L 320.424707 92.48167 
L 320.489651 95.137784 
L 320.554595 94.714628 
L 320.749427 89.734833 
L 320.814371 88.818733 
L 320.879315 89.777889 
L 320.944259 88.717252 
L 321.009203 88.925555 
L 321.074146 88.899958 
L 321.333922 93.48164 
L 321.528754 89.67283 
L 321.593698 89.614356 
L 321.658642 92.347261 
L 321.723585 92.235173 
L 321.983361 88.043367 
L 322.048305 85.503371 
L 322.113249 86.233363 
L 322.243137 86.553023 
L 322.502912 93.211788 
L 322.567856 94.952281 
L 322.6328 94.694976 
L 322.697744 92.492377 
L 322.762688 92.878776 
L 322.827632 92.7065 
L 322.892576 91.611222 
L 323.217295 99.255168 
L 323.412127 96.994245 
L 323.477071 97.857387 
L 323.542015 97.185441 
L 323.606958 94.784364 
L 323.671902 95.224123 
L 323.80179 96.978901 
L 324.061566 90.298042 
L 324.321341 85.367677 
L 324.386285 89.159455 
L 324.451229 88.153111 
L 324.516173 88.417496 
L 324.581117 89.54084 
L 324.711005 85.670104 
L 325.035724 94.51872 
L 325.100668 93.957602 
L 325.165612 93.26205 
L 325.230556 93.305056 
L 325.360444 94.703643 
L 325.425388 94.411949 
L 325.490332 94.732969 
L 325.620219 90.178774 
L 325.685163 91.253343 
L 325.750107 92.243008 
L 325.879995 87.470005 
L 326.074827 93.257591 
L 326.13977 91.694941 
L 326.204714 92.410497 
L 326.269658 92.460381 
L 326.399546 87.877137 
L 326.659322 93.769782 
L 326.724266 91.617999 
L 326.789209 91.131833 
L 326.919097 93.664497 
L 327.113929 98.965262 
L 327.308761 100.7798 
L 327.503592 96.19376 
L 327.568536 97.018531 
L 327.63348 97.308009 
L 327.698424 99.164218 
L 327.9582 94.012575 
L 328.088087 92.60061 
L 328.282919 84.88398 
L 328.347863 84.939608 
L 328.412807 85.679224 
L 328.737526 78.340779 
L 328.80247 80.813482 
L 328.867414 80.053005 
L 329.062246 74.470371 
L 329.12719 75.601651 
L 329.257078 71.239106 
L 329.451909 77.434203 
L 329.646741 72.843678 
L 329.711685 76.839854 
L 329.776629 76.048742 
L 329.841573 72.464561 
L 329.906517 73.428579 
L 329.97146 72.581687 
L 330.036404 75.171793 
L 330.166292 71.301486 
L 330.231236 74.894308 
L 330.29618 74.314396 
L 330.361124 75.327819 
L 330.426068 75.225456 
L 330.491012 79.109066 
L 330.555956 76.871851 
L 330.685843 71.688338 
L 330.815731 75.007177 
L 331.010563 82.011425 
L 331.075507 79.351834 
L 331.140451 79.937894 
L 331.205395 80.799751 
L 331.400226 72.719095 
L 331.46517 72.766333 
L 331.530114 72.761899 
L 331.660002 70.539623 
L 331.724946 70.509618 
L 331.854834 76.379588 
L 331.919777 76.13362 
L 331.984721 76.582801 
L 332.179553 83.092544 
L 332.374385 79.701928 
L 332.569216 84.498211 
L 332.764048 87.160145 
L 332.893936 82.615574 
L 332.95888 84.650433 
L 333.023824 83.728161 
L 333.088768 83.806942 
L 333.153711 85.305221 
L 333.218655 83.445989 
L 333.283599 83.559689 
L 333.413487 87.052366 
L 333.608319 84.023534 
L 333.673263 85.640753 
L 333.738207 83.353326 
L 333.80315 83.957677 
L 333.868094 83.871237 
L 333.933038 84.982966 
L 333.997982 82.596326 
L 334.062926 83.310925 
L 334.12787 85.638083 
L 334.192814 84.478258 
L 334.647421 77.498221 
L 334.712365 78.467202 
L 334.907197 71.91279 
L 335.037085 74.584323 
L 335.102028 74.360123 
L 335.166972 74.647282 
L 335.231916 77.349073 
L 335.426748 70.495383 
L 335.491692 71.706024 
L 335.686523 78.19594 
L 335.751467 79.255619 
L 335.816411 77.536868 
L 336.206075 83.715942 
L 336.271019 82.339852 
L 336.530794 88.734737 
L 336.855514 80.669574 
L 336.920458 81.466104 
L 336.985401 78.724583 
L 337.050345 80.107273 
L 337.115289 83.204783 
L 337.180233 83.154799 
L 337.245177 79.994782 
L 337.310121 81.110417 
L 337.375065 81.162392 
L 337.440009 82.168257 
L 337.504953 84.98478 
L 337.569897 82.625979 
L 337.699784 86.075448 
L 337.894616 81.547077 
L 337.95956 80.082003 
L 338.089448 83.776482 
L 338.284279 79.000884 
L 338.479111 83.501769 
L 338.544055 83.598387 
L 338.608999 84.770708 
L 338.803831 79.457069 
L 338.868774 78.483754 
L 338.998662 81.788611 
L 339.063606 77.303018 
L 339.12855 78.223477 
L 339.193494 81.715347 
L 339.258438 81.346912 
L 339.713045 66.550451 
L 339.777989 66.531707 
L 339.842933 70.542823 
L 339.972821 63.472416 
L 340.037765 63.883831 
L 340.102709 67.009811 
L 340.167652 63.930868 
L 340.427428 72.686141 
L 340.492372 73.022253 
L 340.557316 72.435462 
L 340.687204 79.057343 
L 340.752148 75.605279 
L 340.817091 76.381779 
L 340.882035 76.669544 
L 340.946979 76.314361 
L 341.141811 81.995729 
L 341.206755 80.278288 
L 341.46653 86.068898 
L 341.596418 81.519112 
L 341.661362 82.041557 
L 341.726306 83.754362 
L 341.921138 77.557073 
L 342.051025 80.484551 
L 342.115969 80.350494 
L 342.180913 77.162109 
L 342.245857 79.259726 
L 342.310801 81.608701 
L 342.375745 80.646169 
L 342.570577 75.975075 
L 342.635521 76.663371 
L 342.700464 80.556026 
L 342.765408 78.117561 
L 342.96024 81.66123 
L 343.090128 78.026007 
L 343.155072 78.480278 
L 343.220016 78.646784 
L 343.28496 78.094912 
L 343.349903 81.439877 
L 343.414847 80.515791 
L 343.739567 69.43457 
L 343.804511 69.613346 
L 343.999342 62.27097 
L 344.324062 70.905237 
L 344.389006 70.816932 
L 344.45395 71.459351 
L 344.713725 80.054466 
L 344.778669 77.274171 
L 344.843613 78.513811 
L 344.973501 79.446009 
L 345.168333 73.563215 
L 345.233276 73.392854 
L 345.493052 81.326278 
L 345.557996 81.054839 
L 345.62294 81.763392 
L 345.817772 87.077837 
L 345.882715 87.108699 
L 345.947659 85.24856 
L 346.012603 85.40058 
L 346.207435 89.902876 
L 346.272379 89.890808 
L 346.402267 92.162892 
L 346.597098 87.470962 
L 346.662042 87.152738 
L 346.921818 84.217073 
L 347.051706 86.881702 
L 347.311481 82.565816 
L 347.376425 84.016958 
L 347.441369 84.003001 
L 347.636201 78.010009 
L 347.701145 80.433684 
L 347.766088 77.919613 
L 347.831032 77.957429 
L 348.090808 83.092368 
L 348.155752 82.894974 
L 348.220696 83.281045 
L 348.28564 86.064388 
L 348.350584 85.981047 
L 348.675303 76.710433 
L 348.870135 74.620048 
L 348.935079 77.955414 
L 349.000023 77.871795 
L 349.064966 78.217606 
L 349.12991 77.867109 
L 349.194854 74.939304 
L 349.259798 77.021905 
L 349.519574 69.647559 
L 349.714405 75.937586 
L 349.779349 76.026974 
L 349.974181 69.543357 
L 350.104069 65.245434 
L 350.169013 65.383144 
L 350.298901 67.255325 
L 350.493732 60.661183 
L 350.558676 61.761223 
L 350.62362 61.316097 
L 350.688564 60.177864 
L 350.883396 66.578895 
L 350.948339 67.014396 
L 351.078227 71.60215 
L 351.273059 64.633248 
L 351.338003 65.184339 
L 351.402947 64.492037 
L 351.467891 65.09349 
L 351.532835 62.381395 
L 351.597778 63.734407 
L 351.79261 68.503833 
L 351.857554 68.533033 
L 351.922498 65.521861 
L 351.987442 65.661309 
L 352.247217 70.803504 
L 352.377105 66.225677 
L 352.442049 68.690998 
L 352.506993 68.366249 
L 352.571937 68.734382 
L 352.636881 67.748369 
L 352.701825 69.64703 
L 352.766769 68.378317 
L 352.896656 65.423706 
L 352.9616 68.49824 
L 353.026544 68.325813 
L 353.091488 65.933403 
L 353.156432 66.935842 
L 353.351264 73.437448 
L 353.416208 73.486021 
L 353.611039 77.720985 
L 353.675983 78.210527 
L 353.805871 76.989052 
L 353.870815 80.051191 
L 353.935759 79.073165 
L 354.390366 86.608273 
L 354.45531 86.163778 
L 354.585198 83.329972 
L 354.715086 85.41033 
L 354.780029 83.51366 
L 354.844973 84.725132 
L 355.039805 88.811704 
L 355.104749 88.634893 
L 355.169693 89.609443 
L 355.234637 89.328027 
L 355.364525 89.791997 
L 355.559356 86.281232 
L 355.6243 85.589232 
L 355.819132 89.947973 
L 356.078907 87.082649 
L 356.143851 86.819373 
L 356.273739 84.219063 
L 356.468571 89.403936 
L 356.533515 88.887613 
L 356.728346 84.724755 
L 356.858234 87.561861 
L 356.988122 86.893695 
L 357.182954 83.081232 
L 357.247898 84.628111 
L 357.312841 84.218383 
L 357.507673 89.33944 
L 357.572617 90.404738 
L 357.767449 85.109339 
L 357.832393 85.158744 
L 357.897337 85.193537 
L 358.027224 88.787795 
L 358.092168 86.990918 
L 358.287 90.886722 
L 358.416888 89.064499 
L 358.481832 89.250909 
L 358.611719 90.93076 
L 358.676663 92.56947 
L 358.741607 90.870572 
L 358.806551 91.479659 
L 359.001383 88.991689 
L 359.066327 90.001107 
L 359.131271 89.885568 
L 359.196215 88.869474 
L 359.261158 90.901183 
L 359.391046 88.007919 
L 359.585878 89.889926 
L 359.715766 87.460053 
L 359.910597 90.4194 
L 360.105429 84.339036 
L 360.170373 84.201352 
L 360.235317 86.080537 
L 360.300261 84.541268 
L 360.495092 87.195265 
L 360.560036 87.000995 
L 360.62498 87.532435 
L 360.689924 87.224138 
L 360.754868 86.561791 
L 360.884756 83.718209 
L 360.9497 85.177866 
L 361.079588 82.228067 
L 361.144531 82.387998 
L 361.404307 85.626443 
L 361.469251 84.885542 
L 361.599139 84.312835 
L 361.79397 80.696608 
L 361.988802 78.289081 
L 362.313522 81.196403 
L 362.443409 83.815911 
L 362.638241 81.535387 
L 362.768129 83.162432 
L 362.898017 80.264633 
L 362.962961 81.570507 
L 363.027904 80.781108 
L 363.092848 80.943986 
L 363.157792 82.445012 
L 363.352624 78.997709 
L 363.482512 82.736102 
L 363.547456 82.181559 
L 363.742287 78.665604 
L 363.872175 82.554479 
L 363.937119 80.730972 
L 364.131951 85.486743 
L 364.261839 83.866475 
L 364.586558 87.869227 
L 364.716446 88.128547 
L 364.911278 85.41945 
L 365.171053 89.622921 
L 365.300941 90.949278 
L 365.430829 90.335203 
L 365.560717 87.393188 
L 365.62566 87.667298 
L 365.690604 86.643016 
L 365.755548 86.681462 
L 365.820492 86.754373 
L 365.885436 85.540885 
L 365.95038 86.132286 
L 366.080268 86.282214 
L 366.145212 86.710409 
L 366.210155 86.161586 
L 366.275099 87.59746 
L 366.340043 87.280496 
L 366.404987 86.868501 
L 366.534875 85.225231 
L 366.664763 86.797152 
L 366.729707 88.626353 
L 366.794651 88.315108 
L 367.379146 79.329865 
L 367.44409 80.799575 
L 367.703865 76.440607 
L 367.768809 76.341822 
L 367.833753 75.839607 
L 368.028585 77.656917 
L 368.223416 80.689704 
L 368.61308 84.967825 
L 368.937799 87.563297 
L 369.002743 87.616885 
L 369.067687 86.83401 
L 369.132631 87.88855 
L 369.262519 86.549773 
L 369.327463 86.710006 
L 369.45735 90.310714 
L 369.522294 89.812808 
L 369.652182 91.175594 
L 369.78207 89.266907 
L 369.847014 91.535842 
L 369.911958 90.177086 
L 369.976902 89.043639 
L 370.041845 89.309107 
L 370.106789 89.192711 
L 370.171733 90.365082 
L 370.366565 86.724241 
L 370.496453 88.841231 
L 370.626341 88.121493 
L 370.691284 88.180018 
L 370.821172 89.631941 
L 370.886116 89.791897 
L 371.080948 87.987209 
L 371.210836 89.278093 
L 371.27578 88.923313 
L 371.340723 89.015774 
L 371.470611 87.794829 
L 371.535555 88.076018 
L 371.600499 88.06531 
L 371.730387 87.130996 
L 371.860275 88.766985 
L 371.925218 87.693399 
L 372.055106 89.185279 
L 372.12005 88.732847 
L 372.184994 89.158699 
L 372.249938 89.114635 
L 372.44477 87.636234 
L 372.639601 89.03671 
L 372.704545 88.269356 
L 372.769489 88.403135 
L 372.834433 88.651496 
L 372.899377 87.943322 
L 373.094209 89.724377 
L 373.159153 89.579437 
L 373.224096 89.696009 
L 373.28904 89.429911 
L 373.483872 86.804307 
L 373.548816 87.804352 
L 373.61376 87.698463 
L 373.678704 87.472272 
L 373.808592 88.917468 
L 373.938479 87.827631 
L 374.198255 89.172732 
L 374.263199 88.001772 
L 374.328143 88.094157 
L 374.393087 88.121745 
L 374.587918 87.095951 
L 374.652862 86.957032 
L 374.717806 88.729068 
L 374.78275 88.593374 
L 374.847694 88.60461 
L 375.367245 84.288346 
L 375.562077 86.342856 
L 375.821852 82.42337 
L 375.886796 82.545712 
L 376.016684 81.264603 
L 376.081628 79.341379 
L 376.146572 80.809501 
L 376.27646 78.816641 
L 376.406347 79.236799 
L 376.536235 82.358068 
L 376.731067 78.833571 
L 376.796011 79.497052 
L 376.860955 81.381125 
L 376.925899 81.116413 
L 376.990843 81.806977 
L 377.055786 79.887355 
L 377.12073 80.15111 
L 377.185674 79.985536 
L 377.250618 77.742652 
L 377.315562 77.928985 
L 377.575338 80.174515 
L 377.640282 77.944857 
L 377.705225 78.012957 
L 377.900057 82.039819 
L 377.965001 82.835139 
L 378.159833 86.426222 
L 378.224777 85.565398 
L 378.28972 86.143698 
L 378.354664 86.665287 
L 378.419608 85.247376 
L 378.484552 85.46039 
L 378.679384 83.722996 
L 378.744328 84.961678 
L 378.809272 84.634938 
L 378.874216 84.580746 
L 378.939159 86.510924 
L 379.004103 86.194666 
L 379.069047 86.534934 
L 379.263879 84.413383 
L 379.393767 85.928165 
L 379.458711 86.065421 
L 379.523655 84.936711 
L 379.653542 85.904936 
L 379.913318 81.885834 
L 379.978262 82.76379 
L 380.043206 82.478545 
L 380.10815 83.265526 
L 380.302981 87.072874 
L 380.367925 86.410577 
L 380.432869 87.254924 
L 380.497813 86.23553 
L 380.562757 86.707613 
L 380.627701 86.322449 
L 380.757589 88.739801 
L 380.822533 87.468417 
L 381.147252 83.595364 
L 381.212196 83.858917 
L 381.342084 85.187919 
L 381.407028 85.079837 
L 381.471971 86.016822 
L 381.601859 84.647586 
L 381.666803 85.225659 
L 381.796691 83.685684 
L 381.861635 85.338603 
L 381.926579 84.258038 
L 381.991523 81.806473 
L 382.056467 82.9178 
L 382.12141 82.639508 
L 382.316242 80.868732 
L 382.381186 81.009263 
L 382.44613 83.222444 
L 382.511074 82.23293 
L 382.705906 83.621515 
L 382.835793 82.103307 
L 382.900737 83.246353 
L 382.965681 83.086296 
L 383.030625 81.749434 
L 383.095569 81.920475 
L 383.160513 82.158154 
L 383.225457 82.130643 
L 383.290401 80.316205 
L 383.485232 83.594356 
L 383.550176 83.425028 
L 383.680064 82.849398 
L 383.745008 84.605285 
L 383.93984 79.552378 
L 384.069727 75.644859 
L 384.134671 76.148988 
L 384.199615 76.673701 
L 384.264559 74.363524 
L 384.459391 77.324433 
L 384.524335 76.91201 
L 384.589279 74.226822 
L 384.654222 75.236617 
L 384.719166 75.144836 
L 384.849054 77.146413 
L 384.913998 75.941794 
L 385.043886 77.918454 
L 385.10883 75.885158 
L 385.173774 76.889637 
L 385.368605 73.520915 
L 385.498493 73.703041 
L 385.628381 73.540087 
L 385.693325 72.608065 
L 385.758269 73.159534 
L 385.9531 71.917527 
L 386.082988 75.237549 
L 386.147932 74.668319 
L 386.342764 73.36562 
L 386.407708 75.256243 
L 386.472652 75.037737 
L 386.602539 74.268367 
L 386.667483 71.635683 
L 386.732427 72.087762 
L 386.927259 67.494037 
L 387.122091 67.644898 
L 387.187034 69.721201 
L 387.251978 68.34884 
L 387.316922 67.60091 
L 387.381866 67.67886 
L 387.44681 69.608886 
L 387.511754 69.245213 
L 387.641642 69.88617 
L 387.706586 67.389155 
L 387.77153 67.943194 
L 387.836473 68.030642 
L 387.901417 67.080883 
L 387.966361 70.257477 
L 388.031305 68.47418 
L 388.161193 68.314022 
L 388.291081 68.538701 
L 388.420969 65.999965 
L 388.550856 62.237765 
L 388.6158 62.541956 
L 388.680744 61.289543 
L 388.745688 62.437502 
L 388.810632 62.143036 
L 388.875576 62.759227 
L 388.94052 61.497871 
L 389.005464 64.615209 
L 389.070408 62.880133 
L 389.135351 63.714126 
L 389.200295 60.761933 
L 389.265239 64.37811 
L 389.330183 61.857262 
L 389.395127 61.839097 
L 389.460071 63.668122 
L 389.589959 57.074281 
L 389.654903 57.255954 
L 389.78479 61.751825 
L 389.849734 60.002565 
L 389.914678 60.093162 
L 389.979622 60.383143 
L 390.174454 65.199052 
L 390.434229 59.234807 
L 390.629061 64.011993 
L 390.694005 64.003805 
L 391.018724 53.615944 
L 391.148612 57.070175 
L 391.213556 56.412186 
L 391.2785 58.499347 
L 391.473332 53.889952 
L 391.538276 57.017973 
L 391.60322 53.568 
L 391.733107 56.151153 
L 391.798051 54.526954 
L 391.927939 60.691516 
L 391.992883 60.356664 
L 392.057827 60.421639 
L 392.122771 56.916769 
L 392.187715 58.931825 
L 392.252659 59.383022 
L 392.317602 58.257335 
L 392.382546 61.98444 
L 392.44749 60.354901 
L 392.512434 60.84399 
L 392.642322 64.778189 
L 392.707266 61.409264 
L 392.77221 61.970508 
L 392.902098 62.016134 
L 393.031985 60.118003 
L 393.096929 63.811172 
L 393.161873 60.692348 
L 393.226817 62.578562 
L 393.356705 64.640378 
L 393.551536 68.24096 
L 393.61648 67.801151 
L 393.681424 70.741452 
L 393.746368 68.974076 
L 393.811312 68.878314 
L 393.876256 71.583481 
L 393.9412 69.89 
L 394.136032 72.684201 
L 394.265919 67.955967 
L 394.330863 68.162078 
L 394.460751 72.363962 
L 394.525695 70.393524 
L 394.590639 69.323515 
L 394.655583 69.842106 
L 394.785471 73.477758 
L 394.850414 73.180772 
L 394.915358 74.287111 
L 394.980302 71.851745 
L 395.045246 75.648386 
L 395.11019 75.619463 
L 395.175134 75.86266 
L 395.240078 75.164185 
L 395.43491 78.810242 
L 395.629741 75.005539 
L 395.759629 78.95488 
L 395.824573 77.56443 
L 395.889517 77.148278 
L 396.474012 82.897317 
L 396.538956 82.331362 
L 396.668844 79.47274 
L 396.733787 79.565151 
L 396.798731 80.765311 
L 396.993563 78.172988 
L 397.058507 79.294795 
L 397.123451 79.29079 
L 397.253339 77.249885 
L 397.318283 77.879429 
L 397.44817 80.128007 
L 397.513114 80.162548 
L 398.032665 75.726613 
L 398.292441 78.161021 
L 398.357385 78.441076 
L 398.422329 77.835919 
L 398.487273 77.91004 
" clip-path="url(#pe1ccbc02c4)" style="fill: none; stroke: #1f77b4; stroke-width: 1.5; stroke-linecap: square"/>
   </g>
   <g id="patch_3">
    <path d="M 57.6 307.584 
L 57.6 41.472 
" style="fill: none; stroke: #000000; stroke-width: 0.8; stroke-linejoin: miter; stroke-linecap: square"/>
   </g>
   <g id="patch_4">
    <path d="M 414.72 307.584 
L 414.72 41.472 
" style="fill: none; stroke: #000000; stroke-width: 0.8; stroke-linejoin: miter; stroke-linecap: square"/>
   </g>
   <g id="patch_5">
    <path d="M 57.6 307.584 
L 414.72 307.584 
" style="fill: none; stroke: #000000; stroke-width: 0.8; stroke-linejoin: miter; stroke-linecap: square"/>
   </g>
   <g id="patch_6">
    <path d="M 57.6 41.472 
L 414.72 41.472 
" style="fill: none; stroke: #000000; stroke-width: 0.8; stroke-linejoin: miter; stroke-linecap: square"/>
   </g>
  </g>
 </g>
 <defs>
  <clipPath id="pe1ccbc02c4">
   <rect x="57.6" y="41.472" width="357.12" height="266.112"/>
  </clipPath>
 </defs>
</svg>
